<?xml version="1.0" encoding="UTF-8"?>
<svg id="Layer_1" xmlns="http://www.w3.org/2000/svg" version="1.1" viewBox="0 0 213 38">
  <!-- Generator: Adobe Illustrator 29.1.0, SVG Export Plug-In . SVG Version: 2.1.0 Build 142)  -->
  <defs>
    <style>
      .st0, .st1 {
        fill: #26aba3;
      }

      .st1 {
        fill-rule: evenodd;
      }
    </style>
  </defs>
  <path class="st0" d="M42.2,30h-5v-14.5h-4.5v-4.1h14.1v4.1h-4.5v14.5ZM58.5,30l-1-1.9h-.1c-.7.8-1.3,1.4-2,1.7-.7.3-1.6.5-2.7.5s-2.4-.4-3.2-1.2c-.8-.8-1.2-2-1.2-3.4s.5-2.7,1.6-3.4c1.1-.8,2.6-1.2,4.6-1.3h2.4v-.3c0-1.2-.6-1.8-1.8-1.8s-2.4.4-4,1.1l-1.4-3.3c1.7-.9,3.8-1.3,6.3-1.3s3.3.5,4.3,1.4c1,.9,1.5,2.2,1.5,3.8v9.4h-3.4ZM54.8,26.8c.6,0,1.1-.2,1.5-.6.4-.4.6-.9.6-1.5v-1.1h-1.1c-1.6.1-2.5.7-2.5,1.9s.5,1.3,1.4,1.3ZM70.2,30h-5V10.2h5v19.8ZM78.5,21.9c.6-1,1.1-1.7,1.5-2.2l3.2-4.1h5.5l-5,6.1,5.3,8.3h-5.7l-3.1-5.2-1.6,1.2v3.9h-5V10.2h5v7.8c0,1.3,0,2.6-.3,3.9h.1ZM95.8,30h-5v-14.4h5v14.4ZM90.7,12c0-.7.2-1.3.6-1.7.4-.4,1.1-.5,2-.5s1.6.2,2,.6c.4.4.6.9.6,1.7,0,1.5-.9,2.2-2.7,2.2s-2.6-.7-2.6-2.2ZM108.3,30v-7.8c0-1-.1-1.7-.4-2.2-.3-.5-.7-.7-1.3-.7s-1.4.3-1.8,1c-.4.7-.6,1.8-.6,3.4v6.3h-5v-14.4h3.7l.6,1.8h.3c.4-.7,1-1.2,1.8-1.5.8-.3,1.6-.5,2.6-.5,1.6,0,2.8.5,3.7,1.4.9.9,1.3,2.2,1.3,3.9v9.4h-5ZM130.3,15.6v2.4l-2,.7c.3.5.4,1.1.4,1.7,0,1.5-.5,2.8-1.6,3.6-1.1.9-2.7,1.3-4.9,1.3s-1,0-1.3-.1c-.1.2-.2.4-.2.6s.2.4.6.6c.4.1.9.2,1.6.2h2.4c3.2,0,4.8,1.4,4.8,4.1s-.7,3.1-2.2,4.1c-1.5,1-3.6,1.5-6.3,1.5s-3.6-.3-4.7-1c-1.1-.7-1.7-1.7-1.7-2.9s1.1-2.8,3.2-3.3c-.4-.2-.8-.5-1.2-.9-.3-.4-.5-.8-.5-1.2s.1-.8.4-1.2c.2-.3.8-.8,1.5-1.2-.7-.3-1.3-.8-1.8-1.5-.4-.7-.6-1.6-.6-2.6,0-1.6.5-2.8,1.6-3.6,1.1-.9,2.6-1.3,4.6-1.3s.7,0,1.4,0c.6,0,1.1.1,1.4.2h5ZM119.4,31.8c0,.4.2.7.7,1,.4.3,1,.4,1.8.4,1.2,0,2.2-.2,2.9-.5.7-.3,1.1-.7,1.1-1.2s-.2-.7-.7-.8c-.4-.2-1.1-.2-1.9-.2h-1.9c-.5,0-1,.1-1.4.4-.4.3-.5.6-.5.9ZM121,20.3c0,1.5.5,2.2,1.5,2.2s.8-.2,1.1-.5c.3-.4.4-.9.4-1.6,0-1.5-.5-2.2-1.5-2.2s-1.5.7-1.5,2.2ZM140.8,30l-3.8-13.4h-.1c.2,2.3.3,4,.3,5.3v8.1h-4.4V11.4h6.7l3.9,13.2h.1l3.8-13.2h6.7v18.6h-4.6v-8.1c0-.4,0-.9,0-1.4,0-.5,0-1.8.2-3.8h-.1l-3.7,13.3h-4.8ZM162.6,30h-5v-14.4h5v14.4ZM157.5,12c0-.7.2-1.3.6-1.7.4-.4,1.1-.5,2-.5s1.6.2,2,.6c.4.4.6.9.6,1.7,0,1.5-.9,2.2-2.7,2.2s-2.6-.7-2.6-2.2ZM175.1,30v-7.8c0-1-.1-1.7-.4-2.2-.3-.5-.7-.7-1.3-.7s-1.4.3-1.8,1c-.4.7-.6,1.8-.6,3.4v6.3h-5v-14.4h3.7l.6,1.8h.3c.4-.7,1-1.2,1.8-1.5.8-.3,1.6-.5,2.6-.5,1.6,0,2.8.5,3.7,1.4.9.9,1.3,2.2,1.3,3.9v9.4h-5ZM187.9,30.3c-1,0-1.9-.3-2.7-.9-.8-.6-1.4-1.4-1.8-2.6-.4-1.1-.6-2.5-.6-4,0-2.3.5-4.2,1.4-5.5.9-1.3,2.2-2,3.9-2s1.5.2,2.1.5c.6.3,1.2.9,1.7,1.6h.1c-.2-1.1-.2-2.3-.2-3.4v-3.8h5v19.8h-3.7l-1.1-1.8h-.2c-.9,1.4-2.1,2.1-3.8,2.1ZM190,26.3c.8,0,1.4-.2,1.7-.7.3-.5.5-1.3.5-2.3v-.4c0-1.3-.2-2.2-.5-2.7-.4-.5-.9-.8-1.7-.8s-1.2.3-1.5.9c-.4.6-.5,1.5-.5,2.6s.2,2,.5,2.6c.4.6.9.9,1.6.9ZM211.3,25.6c0,1.5-.5,2.7-1.6,3.5-1,.8-2.6,1.2-4.5,1.2s-2,0-2.8-.2c-.8-.1-1.6-.3-2.4-.6v-4c.8.3,1.6.6,2.5.8.9.2,1.7.3,2.5.3,1.1,0,1.6-.2,1.6-.7s-.2-.5-.5-.7c-.3-.2-1.2-.6-2.6-1.2-1.3-.5-2.2-1.2-2.8-1.8-.5-.7-.8-1.6-.8-2.6s.5-2.4,1.5-3.1c1-.7,2.5-1.1,4.4-1.1s1.8.1,2.7.3c.8.2,1.7.5,2.6.9l-1.3,3.2c-.7-.3-1.4-.5-2.1-.7-.7-.2-1.3-.3-1.8-.3-.8,0-1.2.2-1.2.6s.1.5.4.6c.3.2,1.1.5,2.5,1.1,1,.4,1.8.8,2.2,1.2.5.4.9.9,1.1,1.4.2.5.4,1.2.4,2Z"/>
  <path class="st1" d="M5.4,1.4C2.8,5.3,1.4,8.2.6,10.9,0,12.9,0,13.8,0,15.8c0,2.2.5,3.7,1.3,5.2.7,1.2,2.5,3.1,3.7,3.8,1,.6,3.1,1.6,3.5,1.6s.2-.4-.1-1.8c-.8-3.8-1.2-9.1-1.2-14.6s0-3.4.2-3.4.4.7.7,2.6c0,.6.2,1.3.3,1.5,0,.3.2.9.3,1.4.6,3.2,1.7,7.1,2.4,9,.2.6.3.7.4.4,0-.2.1-.5.1-.8,0-.3.3-1.1.6-1.8.8-1.7,2.1-3.1,3.9-4,1.3-.7,1.4-.8,1.1-1.7-.7-2.2-2-4.7-3.4-6.5-1.1-1.3-4.2-4.5-4.8-4.9-.3-.2-.5-.4-.5-.4-.1-.2-1.8-1.4-2-1.4s-.5.6-1,1.4ZM22,15.6c-1.9.3-3.1.7-4.4,1.4-2.6,1.4-3.9,3.6-4,6.7,0,1.3.3,3.5.5,3.8,0,0,.7-.5,1.4-1.2,1.4-1.5,3.4-3.2,4.9-4.2.9-.6,1.8-.9,1.8-.7s-.5.7-1.2,1.4c-1.1,1.2-2.5,3-3,4-.7,1.3-1.3,2.5-1.4,2.7,0,.2.1.3,1.5.4,1.9.2,2.8,0,4.3-.7,1.4-.7,2.2-1.6,3.1-3.5,1.1-2.3,1.5-4.8,1.5-8.4v-2s-2,0-2,0c-1.1,0-2.5.1-3.1.2Z"/>
</svg>