<?xml version="1.0" encoding="UTF-8"?><svg id="Layer_1" xmlns="http://www.w3.org/2000/svg" xmlns:xlink="http://www.w3.org/1999/xlink" viewBox="0 0 213 38"><defs><style>.cls-1{fill:none;}.cls-2{fill:#262626;}.cls-3{fill:#30b179;}.cls-4{fill:#38a191;}.cls-5{fill:#3d959f;}.cls-6{fill:#3b9b97;}.cls-7{fill:#36a48c;}.cls-8{fill:#428aa9;}.cls-9{fill:#418ca8;}.cls-10{fill:#37a28f;}.cls-11{fill:#31ae7f;}.cls-12{fill:#4876b8;}.cls-13{fill:#418da7;}.cls-14{fill:#3c979c;}.cls-15{fill:#30b07a;}.cls-16{fill:#3c989b;}.cls-17{fill:#33aa85;}.cls-18{fill:#2fb277;}.cls-19{fill:#4388ab;}.cls-20{fill:#467eb1;}.cls-21{fill:#37a38d;}.cls-22{fill:#32ac81;}.cls-23{fill:#2eb376;}.cls-24{fill:#418aa8;}.cls-25{fill:#3f90a3;}.cls-26{fill:#3a9d96;}.cls-27{fill:#4090a4;}.cls-28{fill:#467db3;}.cls-29{fill:#4875b9;}.cls-30{fill:#231f20;}.cls-31{fill:#4583ae;}.cls-32{fill:#3f91a2;}.cls-33{fill:#3b9b98;}.cls-34{fill:#3a9c97;}.cls-35{fill:#38a091;}.cls-36{fill:#2cb574;}.cls-37{fill:#3a9c96;}.cls-38{fill:#477ab4;}.cls-39{fill:#2fb278;}.cls-40{fill:#35a689;}.cls-41{fill:#30af7b;}.cls-42{fill:#3e92a1;}.cls-43{fill:#4582af;}.cls-44{fill:#35a788;}.cls-45{fill:#3f92a2;}.cls-46{fill:#4289aa;}.cls-47{fill:#2db475;}.cls-48{fill:#3b9a99;}.cls-49{fill:#399f92;}.cls-50{fill:#3a9d95;}.cls-51{fill:#4288aa;}.cls-52{fill:#4485ad;}.cls-53{fill:#4483ae;}.cls-54{fill:#4484ae;}.cls-55{fill:#36a58c;}.cls-56{fill:#4581b0;}.cls-57{fill:#31ae7d;}.cls-58{fill:#4779b5;}.cls-59{fill:#4878b6;}.cls-60{fill:#3b999a;}.cls-61{fill:#4580b0;}.cls-62{fill:#31ae7e;}.cls-63{fill:#34a985;}.cls-64{clip-path:url(#clippath-1);}.cls-65{clip-path:url(#clippath-2);}.cls-66{fill:#408ea5;}.cls-67{fill:#2fb178;}.cls-68{fill:#4877b6;}.cls-69{fill:#3e93a1;}.cls-70{fill:#477bb4;}.cls-71{fill:#2cb474;}.cls-72{fill:#408fa4;}.cls-73{fill:#399e94;}.cls-74{fill:#3d969d;}.cls-75{fill:#2db375;}.cls-76{fill:#4388aa;}.cls-77{fill:#4876b7;}.cls-78{fill:#37a28e;}.cls-79{fill:#467fb1;}.cls-80{fill:#33aa84;}.cls-81{fill:#418da6;}.cls-82{fill:#418ca7;}.cls-83{fill:#3e94a0;}.cls-84{fill:#34a986;}.cls-85{fill:#3d949f;}.cls-86{fill:#467eb2;}.cls-87{fill:#34a887;}.cls-88{fill:#38a190;}.cls-89{fill:#467cb3;}.cls-90{fill:#37a38e;}.cls-91{fill:#4875ba;}.cls-92{fill:#4875b8;}.cls-93{fill:#35a789;}.cls-94{fill:#32ad80;}.cls-95{fill:#467db2;}.cls-96{fill:#32ad7f;}.cls-97{fill:#38a092;}.cls-98{fill:#3f91a3;}.cls-99{fill:#36a68a;}.cls-100{fill:#2fb179;}.cls-101{fill:#31af7d;}.cls-102{fill:#4486ac;}.cls-103{fill:#31af7c;}.cls-104{fill:#477cb3;}.cls-105{fill:#35a68a;}.cls-106{fill:#36a58b;}.cls-107{fill:#37a48d;}.cls-108{fill:#3b9999;}.cls-109{fill:#3d959e;}.cls-110{fill:#3b9a98;}.cls-111{fill:#4289a9;}.cls-112{fill:#399f93;}.cls-113{fill:#4387ab;}.cls-114{fill:#32ac82;}.cls-115{fill:#33ab83;}.cls-116{fill:#34a886;}.cls-117{fill:#33a985;}.cls-118{fill:#3d969e;}.cls-119{fill:#4484ad;}.cls-120{fill:#3c999a;}.cls-121{fill:#6bbc45;}.cls-122{fill:#30b07b;}.cls-123{fill:#32ab82;}.cls-124{fill:#418ba8;}.cls-125{fill:#4581af;}.cls-126{fill:#4878b5;}.cls-127{fill:#4386ac;}.cls-128{fill:#2bb673;}.cls-129{clip-path:url(#clippath);}.cls-130{fill:#4877b7;}.cls-131{fill:#408fa5;}.cls-132{fill:#3e949f;}.cls-133{fill:#3e93a0;}.cls-134{fill:#408ea6;}.cls-135{fill:#477bb3;}</style><clipPath id="clippath"><path class="cls-1" d="M59.58,24.09c-1.6,4.25-3.19,8.5-4.79,12.75h-.15c-.47-1.22-.94-2.43-1.41-3.63-2.11-5.36-4.22-10.72-6.32-16.09-.85-2.18-1.67-4.38-2.52-6.56-.64-1.62-1.26-3.24-1.99-4.82-.57-1.22-1.45-2.17-2.94-2.34-.02-.12-.04-.22-.04-.33,0-.09.01-.17.02-.3h11.19v.6c-.4.06-.8.1-1.19.17-.38.06-.77.11-1.14.23-.84.28-1.17.77-.93,1.62.33,1.17.78,2.3,1.22,3.43,1.42,3.63,2.86,7.24,4.29,10.86.81,2.05,1.61,4.1,2.44,6.14.57,1.42,1.36,1.59,2.38.46.53-.58.91-1.29,1.36-1.94.09-.13.2-.26.31-.38.07.04.15.08.22.12Z"/></clipPath><clipPath id="clippath-1"><path class="cls-1" d="M63.49,13.02c.19-.93.4-1.82.56-2.72.23-1.34.32-2.69.07-4.05-.32-1.71-1.63-2.83-3.45-2.93q-.53-.03-.42-.56h11.03c.01.18.02.33.03.51-1.53.16-2.47,1.17-3.32,2.26-1.65,2.11-2.79,4.52-3.89,6.94-.1.23-.08.65-.6.56Z"/></clipPath><clipPath id="clippath-2"><rect class="cls-1" x="78.79" y="27.2" width="27.88" height=".33"/></clipPath></defs><g class="cls-129"><rect class="cls-91" x="39.4" y="2.77" width="0" height="34.07"/><rect class="cls-91" x="39.41" y="2.77" width=".11" height="34.07"/><rect class="cls-29" x="39.51" y="2.77" width=".11" height="34.07"/><rect class="cls-92" x="39.62" y="2.77" width=".11" height="34.07"/><rect class="cls-12" x="39.72" y="2.77" width=".11" height="34.07"/><rect class="cls-77" x="39.83" y="2.77" width=".11" height="34.07"/><rect class="cls-77" x="39.93" y="2.77" width=".11" height="34.07"/><rect class="cls-130" x="40.04" y="2.77" width=".11" height="34.07"/><rect class="cls-68" x="40.15" y="2.77" width=".11" height="34.07"/><rect class="cls-68" x="40.25" y="2.77" width=".11" height="34.07"/><rect class="cls-59" x="40.36" y="2.77" width=".11" height="34.07"/><rect class="cls-59" x="40.46" y="2.77" width=".11" height="34.07"/><rect class="cls-126" x="40.57" y="2.77" width=".11" height="34.07"/><rect class="cls-58" x="40.67" y="2.77" width=".11" height="34.07"/><rect class="cls-58" x="40.78" y="2.77" width=".11" height="34.07"/><rect class="cls-58" x="40.88" y="2.77" width=".11" height="34.07"/><rect class="cls-38" x="40.99" y="2.77" width=".11" height="34.07"/><rect class="cls-38" x="41.1" y="2.77" width=".11" height="34.07"/><rect class="cls-70" x="41.2" y="2.77" width=".11" height="34.07"/><rect class="cls-70" x="41.31" y="2.77" width=".11" height="34.07"/><rect class="cls-135" x="41.41" y="2.77" width=".11" height="34.07"/><rect class="cls-104" x="41.52" y="2.77" width=".11" height="34.07"/><rect class="cls-104" x="41.62" y="2.77" width=".11" height="34.07"/><rect class="cls-89" x="41.73" y="2.77" width=".11" height="34.07"/><rect class="cls-28" x="41.83" y="2.77" width=".11" height="34.07"/><rect class="cls-95" x="41.94" y="2.77" width=".11" height="34.07"/><rect class="cls-95" x="42.05" y="2.77" width=".11" height="34.07"/><rect class="cls-86" x="42.15" y="2.77" width=".11" height="34.07"/><rect class="cls-20" x="42.26" y="2.77" width=".11" height="34.07"/><rect class="cls-20" x="42.36" y="2.77" width=".11" height="34.07"/><rect class="cls-79" x="42.47" y="2.77" width=".11" height="34.07"/><rect class="cls-79" x="42.57" y="2.77" width=".11" height="34.07"/><rect class="cls-79" x="42.68" y="2.77" width=".11" height="34.07"/><rect class="cls-61" x="42.79" y="2.77" width=".11" height="34.07"/><rect class="cls-61" x="42.89" y="2.77" width=".11" height="34.07"/><rect class="cls-56" x="43" y="2.77" width=".11" height="34.07"/><rect class="cls-56" x="43.1" y="2.77" width=".11" height="34.07"/><rect class="cls-125" x="43.21" y="2.77" width=".11" height="34.07"/><rect class="cls-43" x="43.31" y="2.77" width=".11" height="34.07"/><rect class="cls-43" x="43.42" y="2.77" width=".11" height="34.07"/><rect class="cls-43" x="43.52" y="2.77" width=".11" height="34.07"/><rect class="cls-31" x="43.63" y="2.77" width=".11" height="34.07"/><rect class="cls-53" x="43.74" y="2.77" width=".11" height="34.07"/><rect class="cls-53" x="43.84" y="2.77" width=".11" height="34.07"/><rect class="cls-54" x="43.95" y="2.77" width=".11" height="34.07"/><rect class="cls-119" x="44.05" y="2.77" width=".11" height="34.07"/><rect class="cls-119" x="44.16" y="2.77" width=".11" height="34.07"/><rect class="cls-52" x="44.26" y="2.77" width=".11" height="34.07"/><rect class="cls-52" x="44.37" y="2.77" width=".11" height="34.07"/><rect class="cls-102" x="44.48" y="2.77" width=".11" height="34.07"/><rect class="cls-127" x="44.58" y="2.77" width=".11" height="34.07"/><rect class="cls-127" x="44.69" y="2.77" width=".11" height="34.07"/><rect class="cls-113" x="44.79" y="2.77" width=".11" height="34.07"/><rect class="cls-113" x="44.9" y="2.77" width=".11" height="34.07"/><rect class="cls-113" x="45" y="2.77" width=".11" height="34.07"/><rect class="cls-19" x="45.11" y="2.77" width=".11" height="34.07"/><rect class="cls-76" x="45.21" y="2.77" width=".11" height="34.07"/><rect class="cls-51" x="45.32" y="2.77" width=".11" height="34.07"/><rect class="cls-46" x="45.43" y="2.77" width=".11" height="34.07"/><rect class="cls-46" x="45.53" y="2.77" width=".11" height="34.07"/><rect class="cls-111" x="45.64" y="2.77" width=".11" height="34.07"/><rect class="cls-8" x="45.74" y="2.77" width=".11" height="34.07"/><rect class="cls-8" x="45.85" y="2.77" width=".11" height="34.07"/><rect class="cls-24" x="45.95" y="2.77" width=".11" height="34.07"/><rect class="cls-124" x="46.06" y="2.77" width=".11" height="34.07"/><rect class="cls-124" x="46.17" y="2.77" width=".11" height="34.07"/><rect class="cls-9" x="46.27" y="2.77" width=".11" height="34.07"/><rect class="cls-82" x="46.38" y="2.77" width=".11" height="34.07"/><rect class="cls-82" x="46.48" y="2.77" width=".11" height="34.07"/><rect class="cls-13" x="46.59" y="2.77" width=".11" height="34.07"/><rect class="cls-81" x="46.69" y="2.77" width=".11" height="34.07"/><rect class="cls-81" x="46.8" y="2.77" width=".11" height="34.07"/><rect class="cls-134" x="46.9" y="2.77" width=".11" height="34.07"/><rect class="cls-66" x="47.01" y="2.77" width=".11" height="34.07"/><rect class="cls-66" x="47.12" y="2.77" width=".11" height="34.07"/><rect class="cls-131" x="47.22" y="2.77" width=".11" height="34.07"/><rect class="cls-131" x="47.33" y="2.77" width=".11" height="34.07"/><rect class="cls-72" x="47.43" y="2.77" width=".11" height="34.07"/><rect class="cls-27" x="47.54" y="2.77" width=".11" height="34.07"/><rect class="cls-27" x="47.64" y="2.77" width=".11" height="34.07"/><rect class="cls-25" x="47.75" y="2.77" width=".11" height="34.07"/><rect class="cls-98" x="47.86" y="2.77" width=".11" height="34.07"/><rect class="cls-98" x="47.96" y="2.77" width=".11" height="34.07"/><rect class="cls-32" x="48.07" y="2.77" width=".11" height="34.07"/><rect class="cls-45" x="48.17" y="2.77" width=".11" height="34.07"/><rect class="cls-45" x="48.28" y="2.77" width=".11" height="34.07"/><rect class="cls-42" x="48.38" y="2.77" width=".11" height="34.07"/><rect class="cls-69" x="48.49" y="2.77" width=".11" height="34.07"/><rect class="cls-133" x="48.59" y="2.77" width=".11" height="34.07"/><rect class="cls-133" x="48.7" y="2.77" width=".11" height="34.07"/><rect class="cls-83" x="48.81" y="2.77" width=".11" height="34.07"/><rect class="cls-132" x="48.91" y="2.77" width=".11" height="34.07"/><rect class="cls-85" x="49.02" y="2.77" width=".11" height="34.07"/><rect class="cls-5" x="49.12" y="2.77" width=".11" height="34.07"/><rect class="cls-109" x="49.23" y="2.77" width=".11" height="34.07"/><rect class="cls-109" x="49.33" y="2.77" width=".11" height="34.07"/><rect class="cls-118" x="49.44" y="2.77" width=".11" height="34.07"/><rect class="cls-74" x="49.55" y="2.77" width=".11" height="34.07"/><rect class="cls-74" x="49.65" y="2.77" width=".11" height="34.07"/><rect class="cls-14" x="49.76" y="2.77" width=".11" height="34.07"/><rect class="cls-14" x="49.86" y="2.77" width=".11" height="34.07"/><rect class="cls-14" x="49.97" y="2.77" width=".11" height="34.07"/><rect class="cls-16" x="50.07" y="2.77" width=".11" height="34.07"/><rect class="cls-16" x="50.18" y="2.77" width=".11" height="34.07"/><rect class="cls-16" x="50.28" y="2.77" width=".11" height="34.07"/><rect class="cls-120" x="50.39" y="2.77" width=".11" height="34.07"/><rect class="cls-60" x="50.5" y="2.77" width=".11" height="34.07"/><rect class="cls-108" x="50.6" y="2.77" width=".11" height="34.07"/><rect class="cls-48" x="50.71" y="2.77" width=".11" height="34.07"/><rect class="cls-48" x="50.81" y="2.77" width=".11" height="34.07"/><rect class="cls-110" x="50.92" y="2.77" width=".11" height="34.07"/><rect class="cls-33" x="51.02" y="2.77" width=".11" height="34.07"/><rect class="cls-33" x="51.13" y="2.77" width=".11" height="34.07"/><rect class="cls-6" x="51.23" y="2.77" width=".11" height="34.07"/><rect class="cls-34" x="51.34" y="2.77" width=".11" height="34.07"/><rect class="cls-37" x="51.45" y="2.77" width=".11" height="34.07"/><rect class="cls-37" x="51.55" y="2.77" width=".11" height="34.07"/><rect class="cls-26" x="51.66" y="2.77" width=".11" height="34.07"/><rect class="cls-50" x="51.76" y="2.77" width=".11" height="34.07"/><rect class="cls-50" x="51.87" y="2.77" width=".11" height="34.07"/><rect class="cls-73" x="51.97" y="2.77" width=".11" height="34.07"/><rect class="cls-73" x="52.08" y="2.77" width=".11" height="34.07"/><rect class="cls-73" x="52.19" y="2.77" width=".11" height="34.07"/><rect class="cls-112" x="52.29" y="2.77" width=".11" height="34.07"/><rect class="cls-112" x="52.4" y="2.77" width=".11" height="34.07"/><rect class="cls-49" x="52.5" y="2.77" width=".11" height="34.07"/><rect class="cls-97" x="52.61" y="2.77" width=".11" height="34.07"/><rect class="cls-97" x="52.71" y="2.77" width=".11" height="34.07"/><rect class="cls-35" x="52.82" y="2.77" width=".11" height="34.07"/><rect class="cls-4" x="52.92" y="2.77" width=".11" height="34.07"/><rect class="cls-88" x="53.03" y="2.77" width=".11" height="34.07"/><rect class="cls-88" x="53.14" y="2.77" width=".11" height="34.07"/><rect class="cls-88" x="53.24" y="2.77" width=".11" height="34.07"/><rect class="cls-10" x="53.35" y="2.77" width=".11" height="34.07"/><rect class="cls-10" x="53.45" y="2.77" width=".11" height="34.07"/><rect class="cls-78" x="53.56" y="2.77" width=".11" height="34.07"/><rect class="cls-90" x="53.66" y="2.77" width=".11" height="34.07"/><rect class="cls-90" x="53.77" y="2.77" width=".11" height="34.07"/><rect class="cls-21" x="53.88" y="2.77" width=".11" height="34.07"/><rect class="cls-107" x="53.98" y="2.77" width=".11" height="34.07"/><rect class="cls-7" x="54.09" y="2.77" width=".11" height="34.07"/><rect class="cls-7" x="54.19" y="2.77" width=".11" height="34.07"/><rect class="cls-55" x="54.3" y="2.77" width=".11" height="34.07"/><rect class="cls-106" x="54.4" y="2.77" width=".11" height="34.07"/><rect class="cls-106" x="54.51" y="2.77" width=".11" height="34.07"/><rect class="cls-99" x="54.61" y="2.77" width=".11" height="34.07"/><rect class="cls-105" x="54.72" y="2.77" width=".11" height="34.07"/><rect class="cls-40" x="54.83" y="2.77" width=".11" height="34.07"/><rect class="cls-93" x="54.93" y="2.77" width=".11" height="34.07"/><rect class="cls-93" x="55.04" y="2.77" width=".11" height="34.07"/><rect class="cls-44" x="55.14" y="2.77" width=".11" height="34.07"/><rect class="cls-44" x="55.25" y="2.77" width=".11" height="34.07"/><rect class="cls-87" x="55.35" y="2.77" width=".11" height="34.07"/><rect class="cls-87" x="55.46" y="2.77" width=".11" height="34.07"/><rect class="cls-116" x="55.57" y="2.77" width=".11" height="34.07"/><rect class="cls-84" x="55.67" y="2.77" width=".11" height="34.07"/><rect class="cls-63" x="55.78" y="2.77" width=".11" height="34.07"/><rect class="cls-117" x="55.88" y="2.77" width=".11" height="34.07"/><rect class="cls-17" x="55.99" y="2.77" width=".11" height="34.07"/><rect class="cls-80" x="56.09" y="2.77" width=".11" height="34.07"/><rect class="cls-80" x="56.2" y="2.77" width=".11" height="34.07"/><rect class="cls-115" x="56.3" y="2.77" width=".11" height="34.07"/><rect class="cls-115" x="56.41" y="2.77" width=".11" height="34.07"/><rect class="cls-123" x="56.52" y="2.77" width=".11" height="34.07"/><rect class="cls-114" x="56.62" y="2.77" width=".11" height="34.07"/><rect class="cls-22" x="56.73" y="2.77" width=".11" height="34.07"/><rect class="cls-22" x="56.83" y="2.77" width=".11" height="34.07"/><rect class="cls-94" x="56.94" y="2.77" width=".11" height="34.07"/><rect class="cls-94" x="57.04" y="2.77" width=".11" height="34.07"/><rect class="cls-96" x="57.15" y="2.77" width=".11" height="34.07"/><rect class="cls-11" x="57.26" y="2.77" width=".11" height="34.07"/><rect class="cls-62" x="57.36" y="2.77" width=".11" height="34.07"/><rect class="cls-62" x="57.47" y="2.77" width=".11" height="34.07"/><rect class="cls-57" x="57.57" y="2.77" width=".11" height="34.07"/><rect class="cls-101" x="57.68" y="2.77" width=".11" height="34.07"/><rect class="cls-103" x="57.78" y="2.77" width=".11" height="34.07"/><rect class="cls-41" x="57.89" y="2.77" width=".11" height="34.07"/><rect class="cls-122" x="57.99" y="2.77" width=".11" height="34.07"/><rect class="cls-15" x="58.1" y="2.77" width=".11" height="34.07"/><rect class="cls-15" x="58.21" y="2.77" width=".11" height="34.07"/><rect class="cls-3" x="58.31" y="2.77" width=".11" height="34.07"/><rect class="cls-100" x="58.42" y="2.77" width=".11" height="34.07"/><rect class="cls-67" x="58.52" y="2.77" width=".11" height="34.07"/><rect class="cls-39" x="58.63" y="2.77" width=".11" height="34.07"/><rect class="cls-18" x="58.73" y="2.77" width=".11" height="34.07"/><rect class="cls-23" x="58.84" y="2.77" width=".11" height="34.07"/><rect class="cls-23" x="58.95" y="2.77" width=".11" height="34.07"/><rect class="cls-75" x="59.05" y="2.77" width=".11" height="34.07"/><rect class="cls-47" x="59.16" y="2.77" width=".11" height="34.07"/><rect class="cls-71" x="59.26" y="2.77" width=".11" height="34.07"/><rect class="cls-36" x="59.37" y="2.77" width=".11" height="34.07"/><rect class="cls-128" x="59.47" y="2.77" width=".11" height="34.07"/></g><g class="cls-64"><rect class="cls-91" x="60.14" y="2.76" width=".05" height="10.35"/><rect class="cls-91" x="60.19" y="2.76" width=".06" height="10.35"/><rect class="cls-29" x="60.25" y="2.76" width=".06" height="10.35"/><rect class="cls-92" x="60.31" y="2.76" width=".06" height="10.35"/><rect class="cls-12" x="60.36" y="2.76" width=".06" height="10.35"/><rect class="cls-77" x="60.42" y="2.76" width=".06" height="10.35"/><rect class="cls-77" x="60.48" y="2.76" width=".06" height="10.35"/><rect class="cls-130" x="60.54" y="2.76" width=".06" height="10.35"/><rect class="cls-68" x="60.6" y="2.76" width=".06" height="10.35"/><rect class="cls-68" x="60.65" y="2.76" width=".06" height="10.35"/><rect class="cls-59" x="60.71" y="2.76" width=".06" height="10.35"/><rect class="cls-59" x="60.77" y="2.76" width=".06" height="10.35"/><rect class="cls-126" x="60.83" y="2.76" width=".06" height="10.35"/><rect class="cls-58" x="60.89" y="2.76" width=".06" height="10.35"/><rect class="cls-58" x="60.95" y="2.76" width=".06" height="10.35"/><rect class="cls-58" x="61" y="2.76" width=".06" height="10.35"/><rect class="cls-38" x="61.06" y="2.76" width=".06" height="10.35"/><rect class="cls-38" x="61.12" y="2.76" width=".06" height="10.35"/><rect class="cls-70" x="61.18" y="2.76" width=".06" height="10.35"/><rect class="cls-70" x="61.24" y="2.76" width=".06" height="10.35"/><rect class="cls-135" x="61.29" y="2.76" width=".06" height="10.35"/><rect class="cls-104" x="61.35" y="2.76" width=".06" height="10.35"/><rect class="cls-104" x="61.41" y="2.76" width=".06" height="10.35"/><rect class="cls-89" x="61.47" y="2.76" width=".06" height="10.35"/><rect class="cls-28" x="61.53" y="2.76" width=".06" height="10.35"/><rect class="cls-95" x="61.59" y="2.76" width=".06" height="10.35"/><rect class="cls-95" x="61.64" y="2.76" width=".06" height="10.35"/><rect class="cls-86" x="61.7" y="2.76" width=".06" height="10.35"/><rect class="cls-20" x="61.76" y="2.76" width=".06" height="10.35"/><rect class="cls-20" x="61.82" y="2.76" width=".06" height="10.35"/><rect class="cls-79" x="61.88" y="2.76" width=".06" height="10.35"/><rect class="cls-79" x="61.94" y="2.76" width=".06" height="10.35"/><rect class="cls-79" x="61.99" y="2.76" width=".06" height="10.35"/><rect class="cls-61" x="62.05" y="2.76" width=".06" height="10.35"/><rect class="cls-61" x="62.11" y="2.76" width=".06" height="10.35"/><rect class="cls-56" x="62.17" y="2.76" width=".06" height="10.35"/><rect class="cls-56" x="62.23" y="2.76" width=".06" height="10.35"/><rect class="cls-125" x="62.28" y="2.76" width=".06" height="10.35"/><rect class="cls-43" x="62.34" y="2.76" width=".06" height="10.35"/><rect class="cls-43" x="62.4" y="2.76" width=".06" height="10.35"/><rect class="cls-43" x="62.46" y="2.76" width=".06" height="10.35"/><rect class="cls-31" x="62.52" y="2.76" width=".06" height="10.35"/><rect class="cls-53" x="62.58" y="2.76" width=".06" height="10.35"/><rect class="cls-53" x="62.63" y="2.76" width=".06" height="10.35"/><rect class="cls-54" x="62.69" y="2.76" width=".06" height="10.35"/><rect class="cls-119" x="62.75" y="2.76" width=".06" height="10.35"/><rect class="cls-119" x="62.81" y="2.76" width=".06" height="10.35"/><rect class="cls-52" x="62.87" y="2.76" width=".06" height="10.35"/><rect class="cls-52" x="62.92" y="2.76" width=".06" height="10.35"/><rect class="cls-102" x="62.98" y="2.76" width=".06" height="10.35"/><rect class="cls-127" x="63.04" y="2.76" width=".06" height="10.35"/><rect class="cls-127" x="63.1" y="2.76" width=".06" height="10.35"/><rect class="cls-113" x="63.16" y="2.76" width=".06" height="10.35"/><rect class="cls-113" x="63.22" y="2.76" width=".06" height="10.35"/><rect class="cls-113" x="63.27" y="2.76" width=".06" height="10.35"/><rect class="cls-19" x="63.33" y="2.76" width=".06" height="10.35"/><rect class="cls-76" x="63.39" y="2.76" width=".06" height="10.35"/><rect class="cls-51" x="63.45" y="2.76" width=".06" height="10.35"/><rect class="cls-46" x="63.51" y="2.76" width=".06" height="10.35"/><rect class="cls-46" x="63.57" y="2.76" width=".06" height="10.35"/><rect class="cls-111" x="63.62" y="2.76" width=".06" height="10.35"/><rect class="cls-8" x="63.68" y="2.76" width=".06" height="10.35"/><rect class="cls-8" x="63.74" y="2.76" width=".06" height="10.35"/><rect class="cls-24" x="63.8" y="2.76" width=".06" height="10.35"/><rect class="cls-124" x="63.86" y="2.76" width=".06" height="10.35"/><rect class="cls-124" x="63.91" y="2.76" width=".06" height="10.35"/><rect class="cls-9" x="63.97" y="2.76" width=".06" height="10.35"/><rect class="cls-82" x="64.03" y="2.76" width=".06" height="10.35"/><rect class="cls-82" x="64.09" y="2.76" width=".06" height="10.35"/><rect class="cls-13" x="64.15" y="2.76" width=".06" height="10.35"/><rect class="cls-81" x="64.21" y="2.76" width=".06" height="10.35"/><rect class="cls-81" x="64.26" y="2.76" width=".06" height="10.35"/><rect class="cls-134" x="64.32" y="2.76" width=".06" height="10.35"/><rect class="cls-66" x="64.38" y="2.76" width=".06" height="10.35"/><rect class="cls-66" x="64.44" y="2.76" width=".06" height="10.35"/><rect class="cls-131" x="64.5" y="2.76" width=".06" height="10.35"/><rect class="cls-131" x="64.55" y="2.76" width=".06" height="10.35"/><rect class="cls-72" x="64.61" y="2.76" width=".06" height="10.35"/><rect class="cls-27" x="64.67" y="2.76" width=".06" height="10.35"/><rect class="cls-27" x="64.73" y="2.76" width=".06" height="10.35"/><rect class="cls-25" x="64.79" y="2.76" width=".06" height="10.35"/><rect class="cls-98" x="64.85" y="2.76" width=".06" height="10.35"/><rect class="cls-98" x="64.9" y="2.76" width=".06" height="10.35"/><rect class="cls-32" x="64.96" y="2.76" width=".06" height="10.35"/><rect class="cls-45" x="65.02" y="2.76" width=".06" height="10.35"/><rect class="cls-45" x="65.08" y="2.76" width=".06" height="10.35"/><rect class="cls-42" x="65.14" y="2.76" width=".06" height="10.35"/><rect class="cls-69" x="65.2" y="2.76" width=".06" height="10.35"/><rect class="cls-133" x="65.25" y="2.76" width=".06" height="10.35"/><rect class="cls-133" x="65.31" y="2.76" width=".06" height="10.35"/><rect class="cls-83" x="65.37" y="2.76" width=".06" height="10.35"/><rect class="cls-132" x="65.43" y="2.76" width=".06" height="10.35"/><rect class="cls-85" x="65.49" y="2.76" width=".06" height="10.35"/><rect class="cls-5" x="65.54" y="2.76" width=".06" height="10.35"/><rect class="cls-109" x="65.6" y="2.76" width=".06" height="10.35"/><rect class="cls-109" x="65.66" y="2.76" width=".06" height="10.35"/><rect class="cls-118" x="65.72" y="2.76" width=".06" height="10.35"/><rect class="cls-74" x="65.78" y="2.76" width=".06" height="10.35"/><rect class="cls-74" x="65.84" y="2.76" width=".06" height="10.35"/><rect class="cls-14" x="65.89" y="2.76" width=".06" height="10.35"/><rect class="cls-14" x="65.95" y="2.76" width=".06" height="10.35"/><rect class="cls-14" x="66.01" y="2.76" width=".06" height="10.35"/><rect class="cls-16" x="66.07" y="2.76" width=".06" height="10.35"/><rect class="cls-16" x="66.13" y="2.76" width=".06" height="10.35"/><rect class="cls-16" x="66.18" y="2.76" width=".06" height="10.35"/><rect class="cls-120" x="66.24" y="2.76" width=".06" height="10.35"/><rect class="cls-60" x="66.3" y="2.76" width=".06" height="10.35"/><rect class="cls-108" x="66.36" y="2.76" width=".06" height="10.35"/><rect class="cls-48" x="66.42" y="2.76" width=".06" height="10.35"/><rect class="cls-48" x="66.48" y="2.76" width=".06" height="10.35"/><rect class="cls-110" x="66.53" y="2.76" width=".06" height="10.35"/><rect class="cls-33" x="66.59" y="2.76" width=".06" height="10.35"/><rect class="cls-33" x="66.65" y="2.76" width=".06" height="10.35"/><rect class="cls-6" x="66.71" y="2.76" width=".06" height="10.35"/><rect class="cls-34" x="66.77" y="2.76" width=".06" height="10.35"/><rect class="cls-37" x="66.83" y="2.76" width=".06" height="10.35"/><rect class="cls-37" x="66.88" y="2.76" width=".06" height="10.35"/><rect class="cls-26" x="66.94" y="2.76" width=".06" height="10.35"/><rect class="cls-50" x="67" y="2.76" width=".06" height="10.35"/><rect class="cls-50" x="67.06" y="2.76" width=".06" height="10.35"/><rect class="cls-73" x="67.12" y="2.76" width=".06" height="10.35"/><rect class="cls-73" x="67.17" y="2.76" width=".06" height="10.35"/><rect class="cls-73" x="67.23" y="2.76" width=".06" height="10.35"/><rect class="cls-112" x="67.29" y="2.76" width=".06" height="10.35"/><rect class="cls-112" x="67.35" y="2.76" width=".06" height="10.35"/><rect class="cls-49" x="67.41" y="2.76" width=".06" height="10.35"/><rect class="cls-97" x="67.47" y="2.76" width=".06" height="10.35"/><rect class="cls-97" x="67.52" y="2.76" width=".06" height="10.35"/><rect class="cls-35" x="67.58" y="2.76" width=".06" height="10.35"/><rect class="cls-4" x="67.64" y="2.76" width=".06" height="10.35"/><rect class="cls-88" x="67.7" y="2.76" width=".06" height="10.35"/><rect class="cls-88" x="67.76" y="2.76" width=".06" height="10.35"/><rect class="cls-88" x="67.81" y="2.76" width=".06" height="10.35"/><rect class="cls-10" x="67.87" y="2.76" width=".06" height="10.35"/><rect class="cls-10" x="67.93" y="2.76" width=".06" height="10.35"/><rect class="cls-78" x="67.99" y="2.76" width=".06" height="10.35"/><rect class="cls-90" x="68.05" y="2.76" width=".06" height="10.35"/><rect class="cls-90" x="68.11" y="2.76" width=".06" height="10.35"/><rect class="cls-21" x="68.16" y="2.76" width=".06" height="10.35"/><rect class="cls-107" x="68.22" y="2.76" width=".06" height="10.35"/><rect class="cls-7" x="68.28" y="2.76" width=".06" height="10.35"/><rect class="cls-7" x="68.34" y="2.76" width=".06" height="10.35"/><rect class="cls-55" x="68.4" y="2.76" width=".06" height="10.35"/><rect class="cls-106" x="68.46" y="2.76" width=".06" height="10.35"/><rect class="cls-106" x="68.51" y="2.76" width=".06" height="10.35"/><rect class="cls-99" x="68.57" y="2.76" width=".06" height="10.35"/><rect class="cls-105" x="68.63" y="2.76" width=".06" height="10.35"/><rect class="cls-40" x="68.69" y="2.76" width=".06" height="10.35"/><rect class="cls-93" x="68.75" y="2.76" width=".06" height="10.35"/><rect class="cls-93" x="68.8" y="2.76" width=".06" height="10.35"/><rect class="cls-44" x="68.86" y="2.76" width=".06" height="10.35"/><rect class="cls-44" x="68.92" y="2.76" width=".06" height="10.35"/><rect class="cls-87" x="68.98" y="2.76" width=".06" height="10.35"/><rect class="cls-87" x="69.04" y="2.76" width=".06" height="10.35"/><rect class="cls-116" x="69.1" y="2.76" width=".06" height="10.35"/><rect class="cls-84" x="69.15" y="2.76" width=".06" height="10.35"/><rect class="cls-63" x="69.21" y="2.76" width=".06" height="10.35"/><rect class="cls-117" x="69.27" y="2.76" width=".06" height="10.35"/><rect class="cls-17" x="69.33" y="2.76" width=".06" height="10.35"/><rect class="cls-80" x="69.39" y="2.76" width=".06" height="10.35"/><rect class="cls-80" x="69.44" y="2.76" width=".06" height="10.35"/><rect class="cls-115" x="69.5" y="2.76" width=".06" height="10.35"/><rect class="cls-115" x="69.56" y="2.76" width=".06" height="10.35"/><rect class="cls-123" x="69.62" y="2.76" width=".06" height="10.35"/><rect class="cls-114" x="69.68" y="2.76" width=".06" height="10.35"/><rect class="cls-22" x="69.74" y="2.76" width=".06" height="10.35"/><rect class="cls-22" x="69.79" y="2.76" width=".06" height="10.35"/><rect class="cls-94" x="69.85" y="2.76" width=".06" height="10.35"/><rect class="cls-94" x="69.91" y="2.76" width=".06" height="10.35"/><rect class="cls-96" x="69.97" y="2.76" width=".06" height="10.35"/><rect class="cls-11" x="70.03" y="2.76" width=".06" height="10.35"/><rect class="cls-62" x="70.09" y="2.76" width=".06" height="10.35"/><rect class="cls-62" x="70.14" y="2.76" width=".06" height="10.35"/><rect class="cls-57" x="70.2" y="2.76" width=".06" height="10.35"/><rect class="cls-101" x="70.26" y="2.76" width=".06" height="10.35"/><rect class="cls-103" x="70.32" y="2.76" width=".06" height="10.35"/><rect class="cls-41" x="70.38" y="2.76" width=".06" height="10.35"/><rect class="cls-122" x="70.43" y="2.76" width=".06" height="10.35"/><rect class="cls-15" x="70.49" y="2.76" width=".06" height="10.35"/><rect class="cls-15" x="70.55" y="2.76" width=".06" height="10.35"/><rect class="cls-3" x="70.61" y="2.76" width=".06" height="10.35"/><rect class="cls-100" x="70.67" y="2.76" width=".06" height="10.35"/><rect class="cls-67" x="70.73" y="2.76" width=".06" height="10.35"/><rect class="cls-39" x="70.78" y="2.76" width=".06" height="10.35"/><rect class="cls-18" x="70.84" y="2.76" width=".06" height="10.35"/><rect class="cls-23" x="70.9" y="2.76" width=".06" height="10.35"/><rect class="cls-23" x="70.96" y="2.76" width=".06" height="10.35"/><rect class="cls-75" x="71.02" y="2.76" width=".06" height="10.35"/><rect class="cls-47" x="71.07" y="2.76" width=".06" height="10.35"/><rect class="cls-71" x="71.13" y="2.76" width=".06" height="10.35"/><rect class="cls-36" x="71.19" y="2.76" width=".06" height="10.35"/><rect class="cls-128" x="71.25" y="2.76" width=".06" height="10.35"/></g><path class="cls-121" d="M62.09,6.04c.43.09.87.18,1.28.37-2.13-.45-4.03.46-4.5,2.68-1.01,4.78,12.04,6.79,10.37,14.66-1.14,5.41-6.96,5.95-11.45,5,2.32.49,5.28-.14,5.84-2.8,1.31-6.18-12.31-6.94-10.44-15.78.81-3.82,5.66-4.81,8.9-4.12Z"/><path class="cls-30" d="M77.33,2.54h1.58c1.04,0,1.83.8,1.83,2.01,0,1.29-.81,2.06-1.83,2.06h-1.58V2.54ZM78.91,6.55c1.02-.02,1.22-1.1,1.22-2,0-.85-.16-1.93-1.22-1.96l-1.02-.02v3.99l1.02-.02Z"/><path class="cls-30" d="M81.3,4.38h.56v.51c.07-.27.27-.58.72-.58.22,0,.34.13.34.28s-.13.28-.28.28-.28-.13-.28-.28c0-.09.06-.18.12-.22-.4,0-.62.5-.62.8v1.44h-.56v-2.23Z"/><path class="cls-30" d="M82.88,6.42c0-.15.11-.26.26-.26s.26.11.26.26-.11.26-.26.26-.26-.11-.26-.26Z"/><path d="M79.22,12.36h-1.04c-.12-.27-.29-.47-.5-.59s-.41-.18-.6-.18h-.1v-.13h2.81v.13h-.11c-.16,0-.3.07-.42.2-.12.13-.14.32-.04.57ZM81.69,20.37l-3.87-8.84h1.06l3.06,7.65-.25,1.19ZM81.69,20.37l-.11-.87,3.32-8h.75l-3.38,7.59c-.09.21-.17.39-.23.54-.06.15-.12.3-.16.44s-.07.25-.07.31h-.11ZM84.55,12.36c.09-.25.07-.44-.05-.57-.12-.13-.27-.2-.42-.2h-.11v-.13h2.51v.13h-.11c-.18,0-.38.06-.59.18-.21.12-.38.32-.51.61h-.71Z"/><path d="M88.1,12.37h-.04c0-.22-.09-.4-.24-.56-.15-.15-.34-.23-.56-.23h-.16v-.13h1v.91ZM88.1,19.29v.91h-1v-.12h.16c.22,0,.4-.08.56-.23.15-.15.23-.34.24-.56h.04ZM88.87,11.46v8.74h-.81v-8.74h.81ZM88.84,12.37v-.91h1v.13h-.16c-.22,0-.4.08-.56.23-.15.15-.24.34-.24.56h-.04ZM88.84,19.29h.04c0,.22.09.4.24.56.15.15.34.23.56.23h.16v.12h-1v-.91Z"/><path d="M92.32,12.37h-.04c0-.22-.08-.4-.24-.56s-.35-.23-.56-.23h-.15v-.13s.99,0,.99,0v.91ZM92.32,19.29v.91h-1v-.12h.16c.22,0,.4-.08.56-.23.15-.15.23-.34.24-.56h.04ZM93.1,11.46v8.74h-.81v-8.74h.81ZM95.56,11.46c.89,0,1.67.18,2.34.54s1.19.87,1.57,1.53c.38.66.57,1.42.57,2.3s-.19,1.64-.57,2.29-.9,1.16-1.57,1.53c-.67.37-1.45.55-2.34.55h-2.67v-.37h2.67c.72,0,1.34-.17,1.87-.5.53-.33.94-.8,1.24-1.4.3-.6.44-1.3.44-2.1s-.15-1.5-.44-2.1-.71-1.07-1.24-1.4-1.15-.5-1.86-.5h-2.81v-.37h2.81Z"/><path d="M102.56,12.36l-1.05-.04c-.12-.19-.29-.36-.51-.51s-.47-.22-.74-.22h-.17v-.13h3.07v.13h-.16c-.18,0-.32.09-.42.26-.1.17-.1.34-.02.52ZM102.09,11.47l2.45,4.56-.54.44-2.98-4.99h1.07ZM103.92,19.29v.91h-.99v-.12h.16c.22,0,.4-.08.56-.23.15-.15.23-.34.24-.56h.02ZM104.71,16.18v4.02h-.81v-4.02h.81ZM106.93,11.47h.76l-3.07,4.97-.45-.14,2.76-4.83ZM104.67,19.29h.04c0,.22.08.4.24.56s.35.23.56.23h.15v.12h-.99v-.91ZM106.42,12.36c.08-.12.1-.24.06-.36-.03-.12-.1-.22-.19-.3s-.2-.12-.31-.12h-.15v-.13h2.77v.13h-.17c-.26,0-.5.08-.72.22s-.4.32-.54.51l-.75.04Z"/><path d="M109.02,19.29c-.06.17-.07.31-.03.42.04.12.11.21.21.27.1.06.19.09.29.09h.11v.12h-2.51v-.12h.11c.19,0,.39-.06.59-.18s.37-.32.51-.61h.71ZM111.7,11.28l.11.87-3.13,8h-.75l3.2-7.59c.09-.21.17-.39.23-.54s.12-.3.16-.44c.05-.14.07-.25.07-.31h.11ZM113.46,16.79v.37h-3.91v-.37h3.91ZM111.7,11.28l3.7,8.84h-1.06l-2.88-7.65.25-1.19ZM114.02,19.29h1.02c.13.28.29.48.5.61s.41.18.6.18h.1v.12h-2.81v-.12h.11c.16,0,.3-.07.42-.21s.14-.33.05-.58Z"/><path d="M122.37,11.28c.13,0,.28,0,.43.03.15.02.3.04.45.07.15.03.28.06.4.09.12.03.21.06.28.09v1.39h-.11c0-.4-.14-.71-.41-.94-.27-.23-.61-.34-1-.34-.46,0-.83.14-1.11.43-.28.29-.42.62-.42,1.01,0,.16.04.34.11.56.07.21.2.41.39.59l2.46,2.27c.25.23.42.48.5.75.08.27.12.52.12.77,0,.69-.21,1.25-.63,1.69-.42.43-.99.65-1.7.65-.2,0-.43-.02-.71-.06s-.53-.11-.79-.22c-.25-.1-.46-.24-.63-.41-.02-.13-.04-.3-.04-.5s.02-.41.05-.63c.03-.22.08-.42.14-.61h.11c-.04.42.01.8.16,1.11.15.32.37.56.66.72.29.16.61.24.98.22.46-.03.85-.19,1.18-.48.33-.3.49-.69.49-1.19,0-.24-.04-.46-.12-.66-.08-.2-.2-.36-.36-.51l-2.4-2.22c-.25-.23-.42-.49-.52-.77-.1-.28-.15-.54-.15-.78,0-.35.08-.69.25-1.01.17-.32.41-.59.74-.79s.73-.31,1.2-.31ZM123.93,11.41v.26h-.95v-.26h.95Z"/><path d="M126.96,19.29c-.06.17-.07.31-.03.42.04.12.11.21.21.27.1.06.19.09.29.09h.11v.12h-2.51v-.12h.11c.19,0,.39-.06.59-.18s.37-.32.51-.61h.71ZM129.65,11.28l.11.87-3.13,8h-.75l3.2-7.59c.09-.21.17-.39.23-.54s.12-.3.16-.44c.05-.14.07-.25.07-.31h.11ZM131.41,16.79v.37h-3.91v-.37h3.91ZM129.65,11.28l3.7,8.84h-1.06l-2.88-7.65.25-1.19ZM131.97,19.29h1.02c.13.28.29.48.5.61s.41.18.6.18h.1v.12h-2.81v-.12h.11c.16,0,.3-.07.42-.21s.14-.33.05-.58Z"/><path d="M142.47,16.7v2.06c-.19.25-.45.5-.77.75-.32.25-.72.46-1.19.62s-1.02.24-1.65.24c-.88,0-1.66-.2-2.34-.58-.67-.38-1.2-.91-1.58-1.59-.38-.68-.57-1.47-.57-2.38s.19-1.7.57-2.39c.38-.68.91-1.21,1.58-1.59s1.45-.57,2.34-.57c.46,0,.87.04,1.24.11.37.08.7.18.99.31.29.13.56.27.81.43l.25,1.76h-.11c-.12-.48-.33-.89-.62-1.22-.29-.33-.65-.58-1.08-.76s-.92-.26-1.47-.26c-.7,0-1.32.17-1.85.52-.53.35-.95.84-1.25,1.46-.3.62-.45,1.35-.45,2.19s.15,1.56.45,2.19c.3.62.72,1.11,1.25,1.46.53.35,1.15.52,1.85.53.37,0,.72-.04,1.06-.13.34-.09.66-.21.96-.37.3-.16.57-.36.8-.58v-2.21c.01-.37-.2-.56-.62-.56h-.2v-.13h2.45v.13h-.19c-.43,0-.64.19-.62.56Z"/><path d="M145.32,19.29c-.06.17-.07.31-.03.42.04.12.11.21.21.27.1.06.19.09.29.09h.11v.12h-2.51v-.12h.11c.19,0,.39-.06.59-.18s.37-.32.51-.61h.71ZM148,11.28l.11.87-3.13,8h-.75l3.2-7.59c.09-.21.17-.39.23-.54s.12-.3.16-.44c.05-.14.07-.25.07-.31h.11ZM149.76,16.79v.37h-3.91v-.37h3.91ZM148,11.28l3.7,8.84h-1.06l-2.88-7.65.25-1.19ZM150.33,19.29h1.02c.13.28.29.48.5.61s.41.18.6.18h.1v.12h-2.81v-.12h.11c.16,0,.3-.07.42-.21s.14-.33.05-.58Z"/><path d="M154.16,12.37h-.04c0-.22-.09-.4-.24-.56-.15-.15-.34-.23-.56-.23h-.16v-.13h1v.91ZM154.16,19.29v.91h-1v-.12h.16c.22,0,.4-.08.56-.23.15-.15.23-.34.24-.56h.04ZM154.93,11.46v8.74h-.81v-8.74h.81ZM156.53,11.46c.37,0,.71.05,1.02.16.3.11.56.26.77.47.21.2.37.45.48.74.11.29.17.61.17.98,0,.4-.09.78-.28,1.15-.19.37-.44.66-.76.89-.32.23-.68.34-1.08.34.14.06.3.18.46.36.17.18.31.35.44.52.22.32.42.6.59.84.17.23.34.46.52.69s.32.4.45.54c.17.18.33.35.5.49.17.14.35.25.54.34.2.08.41.13.66.13v.12h-.69c-.38,0-.71-.06-.99-.17-.28-.12-.51-.26-.71-.43-.19-.17-.35-.33-.49-.49-.02-.03-.09-.13-.21-.29-.11-.16-.25-.35-.4-.57-.15-.22-.31-.44-.46-.66-.15-.22-.28-.4-.39-.56-.11-.15-.17-.24-.19-.27-.16-.21-.33-.4-.52-.57-.19-.18-.4-.26-.62-.26v-.12c.26,0,.48,0,.66,0,.22,0,.45-.04.71-.1.26-.06.5-.18.72-.36.22-.18.4-.46.51-.84.03-.09.05-.21.06-.34s.02-.27.01-.41c0-.57-.15-1.02-.43-1.35-.28-.34-.65-.52-1.12-.54-.23-.02-.47-.02-.72-.02-.25,0-.54,0-.87,0,0,0-.01-.04-.03-.11-.02-.06-.05-.16-.09-.28h1.76ZM154.9,19.29h.04c0,.22.08.4.24.56s.35.23.56.23h.15v.12h-.99v-.91Z"/><path d="M161.56,10.75c.06-.12.15-.21.29-.25.13-.04.27-.04.42.02.15.05.26.17.33.36.11.26.15.5.12.74-.02.23-.1.44-.22.63-.12.19-.27.34-.46.44-.18.11-.38.17-.6.17l-.03-.11c.27-.09.44-.22.52-.37.08-.16.11-.32.07-.47-.03-.16-.09-.28-.16-.37-.05-.07-.11-.14-.17-.21s-.12-.16-.15-.26c-.03-.1-.03-.2.02-.31Z"/><path d="M166.41,11.28c.13,0,.28,0,.43.03.15.02.3.04.45.07.15.03.28.06.4.09.12.03.21.06.28.09v1.39h-.11c0-.4-.14-.71-.41-.94-.27-.23-.61-.34-1-.34-.46,0-.83.14-1.11.43-.28.29-.42.62-.42,1.01,0,.16.04.34.11.56.07.21.2.41.39.59l2.46,2.27c.25.23.42.48.5.75.08.27.12.52.12.77,0,.69-.21,1.25-.63,1.69-.42.43-.99.65-1.7.65-.2,0-.43-.02-.71-.06s-.53-.11-.79-.22c-.25-.1-.46-.24-.63-.41-.02-.13-.04-.3-.04-.5s.02-.41.05-.63c.03-.22.08-.42.14-.61h.11c-.04.42.01.8.16,1.11.15.32.37.56.66.72.29.16.61.24.98.22.46-.03.85-.19,1.18-.48.33-.3.49-.69.49-1.19,0-.24-.04-.46-.12-.66-.08-.2-.2-.36-.36-.51l-2.4-2.22c-.25-.23-.42-.49-.52-.77-.1-.28-.15-.54-.15-.78,0-.35.08-.69.25-1.01.17-.32.41-.59.74-.79s.73-.31,1.2-.31ZM167.97,11.41v.26h-.95v-.26h.95Z"/><path class="cls-2" d="M107.78,24.94h-.03c0-.14-.06-.27-.16-.37-.1-.1-.23-.15-.37-.15h-.11s0-.08,0-.08h.66s0,.6,0,.6ZM107.81,29.52v.6s-.66,0-.66,0v-.08s.11,0,.11,0c.14,0,.27-.05.37-.16.1-.1.15-.23.16-.37h.02ZM108.29,24.33l.03,5.79h-.54s-.03-5.79-.03-5.79h.54ZM111.77,27.12v.25s-3.54.02-3.54.02v-.25s3.54-.02,3.54-.02ZM108.27,24.94v-.6s.66,0,.66,0v.08s-.04,0-.11,0c-.14,0-.27.05-.37.16-.1.1-.15.23-.16.37h-.02ZM108.3,29.52h.02c0,.14.06.27.16.37.1.1.23.15.37.15.07,0,.1,0,.11,0v.08s-.66,0-.66,0v-.6ZM111.71,24.92h-.03c0-.14-.05-.27-.16-.37-.11-.1-.23-.15-.37-.15-.07,0-.1,0-.11,0v-.08s.66,0,.66,0v.6ZM111.73,29.5v.6s-.66,0-.66,0v-.08s.04,0,.11,0c.14,0,.27-.05.37-.16.1-.1.16-.23.16-.37h.02ZM112.22,24.31l.03,5.79h-.54s-.03-5.79-.03-5.79h.54ZM112.19,24.91v-.6s.66,0,.66,0v.08s-.11,0-.11,0c-.14,0-.27.05-.37.16-.1.1-.15.23-.16.37h-.02ZM112.22,29.5h.02c0,.14.06.27.16.37.1.1.23.15.37.15h.11s0,.08,0,.08h-.66s0-.6,0-.6Z"/><path class="cls-2" d="M116.39,25c.39,0,.75.06,1.09.18s.64.3.9.53c.26.23.46.5.61.82.14.32.22.67.22,1.05,0,.39-.07.74-.21,1.06-.14.32-.34.59-.6.83-.26.23-.55.41-.89.54-.34.13-.7.19-1.09.19-.39,0-.75-.06-1.09-.18-.34-.12-.63-.3-.89-.53-.26-.23-.46-.5-.6-.82s-.22-.67-.22-1.05.07-.74.21-1.06c.14-.32.34-.59.6-.83.26-.23.55-.41.89-.54s.7-.19,1.08-.19ZM116.42,29.95c.41,0,.78-.1,1.11-.3.33-.2.59-.48.78-.83.19-.35.29-.76.28-1.23,0-.47-.1-.88-.3-1.23-.2-.35-.46-.62-.79-.82s-.7-.29-1.11-.29c-.4,0-.77.1-1.1.3-.33.2-.59.48-.78.83-.19.35-.29.76-.28,1.23,0,.46.1.87.3,1.22.19.35.46.63.79.82.33.2.7.29,1.1.29Z"/><path class="cls-2" d="M120.46,29.5v.55s-.86,0-.86,0v-.08s.12,0,.12,0c.14,0,.27-.04.38-.13.11-.08.17-.2.18-.35h.17ZM120.91,24.97h.08s.17.49.17.49l-.49,4.6h-.46s.69-5.08.69-5.08ZM120.71,29.62c0,.08.01.16.06.24.04.07.13.11.25.12h.12s0,.07,0,.07h-.47s0-.43,0-.43h.05ZM120.99,24.97l2.28,4.32-.19.87-2.24-4.27.15-.91ZM125.29,24.95l.08.54-1.91,3.83c-.08.19-.14.35-.19.48-.04.13-.08.25-.1.37h-.08s-.12-.52-.12-.52l2.32-4.69ZM125.36,24.95l.77,5.08h-.63s-.56-4.16-.56-4.16l.34-.92h.07ZM125.45,29.6h.06s0,.43,0,.43h-.48s0-.07,0-.07h.12c.13,0,.21-.05.25-.13s.06-.15.04-.23ZM125.88,29.47h.17c.02.15.09.26.2.35.11.08.24.12.37.12h.12s0,.08,0,.08h-.86s0-.55,0-.55Z"/><path class="cls-2" d="M129.94,24.92c.39,0,.75.06,1.09.18s.64.3.9.53c.26.23.46.5.61.82.14.32.22.67.22,1.05,0,.39-.07.74-.21,1.06-.14.32-.34.59-.6.83-.26.23-.55.41-.89.54-.34.13-.7.19-1.09.19-.39,0-.75-.06-1.09-.18-.34-.12-.63-.3-.89-.53-.26-.23-.46-.5-.6-.82s-.22-.67-.22-1.05.07-.74.21-1.06c.14-.32.34-.59.6-.83.26-.23.55-.41.89-.54s.7-.19,1.08-.19ZM129.97,29.87c.41,0,.78-.1,1.11-.3.33-.2.59-.48.78-.83.19-.35.29-.76.28-1.23,0-.47-.1-.88-.3-1.23-.2-.35-.46-.62-.79-.82s-.7-.29-1.11-.29c-.4,0-.77.1-1.1.3-.33.2-.59.48-.78.83-.19.35-.29.76-.28,1.23,0,.46.1.87.3,1.22.19.35.46.63.79.82.33.2.7.29,1.1.29Z"/><path class="cls-2" d="M134.09,25.53h-.02c0-.13-.05-.23-.14-.31-.09-.08-.2-.12-.34-.12h-.12s0-.08,0-.08h.72s-.11.52-.11.52ZM134.11,29.45l.11.53h-.72s0-.08,0-.08h.12c.14,0,.25-.05.34-.13.09-.09.13-.19.14-.32h.02ZM134.6,25.01l.03,4.97h-.53s-.03-4.96-.03-4.96h.53ZM136.82,25v.26s-2.23.01-2.23.01v-.26s2.23-.01,2.23-.01ZM136.45,27.36v.25s-1.85.01-1.85.01v-.25s1.85-.01,1.85-.01ZM136.85,29.7l-.02.26h-2.23s0-.24,0-.24h2.24ZM137.31,28.78l-.45,1.19h-1.26s.28-.25.28-.25c.28,0,.5-.04.67-.12.17-.08.3-.19.41-.33.1-.14.19-.3.27-.48h.08ZM136.81,24.86v.22s-.94-.08-.94-.08c.17,0,.35-.02.55-.05.19-.03.32-.06.4-.09ZM136.45,26.9v.47s-.43,0-.43,0v-.02c.12,0,.2-.04.26-.11.05-.07.08-.15.08-.24v-.11s.09,0,.09,0ZM136.45,27.59v.47s-.09,0-.09,0v-.11c0-.09-.03-.17-.08-.24-.06-.07-.14-.1-.26-.1v-.02h.43ZM136.82,25.23v.57s-.09,0-.09,0v-.12c0-.12-.04-.21-.11-.3-.07-.08-.18-.12-.3-.12v-.02h.5Z"/><path class="cls-2" d="M140.74,24.86c.39,0,.75.06,1.09.18.34.12.64.3.9.53.26.23.46.5.6.82.15.32.22.67.22,1.05s-.07.74-.21,1.06-.34.59-.6.83c-.26.23-.55.41-.89.54s-.7.19-1.09.19c-.39,0-.75-.06-1.09-.18s-.63-.3-.89-.53c-.26-.23-.46-.5-.6-.82-.15-.32-.22-.67-.22-1.05s.07-.74.21-1.06c.14-.32.34-.59.6-.83.26-.23.55-.41.89-.54.34-.13.7-.19,1.08-.19ZM140.77,29.81c.41,0,.78-.1,1.11-.3.33-.2.59-.48.78-.83.19-.35.29-.76.28-1.23,0-.47-.1-.88-.3-1.23-.19-.35-.46-.62-.79-.82-.33-.2-.7-.29-1.11-.29-.4,0-.77.1-1.1.3-.33.2-.59.48-.78.83-.19.35-.29.76-.28,1.23,0,.46.1.87.3,1.22.2.35.46.63.79.82.33.2.7.29,1.1.29Z"/><path class="cls-2" d="M144.89,25.47h-.02c0-.13-.06-.23-.15-.31-.09-.08-.2-.12-.34-.12h-.12s0-.08,0-.08h.72s-.1.52-.1.52ZM144.91,29.39l.11.53h-.72s0-.08,0-.08h.12c.13,0,.24-.05.33-.13.09-.09.14-.19.14-.32h.02ZM145.4,24.95l.03,4.97h-.53s-.03-4.96-.03-4.96h.53ZM146.21,24.94c.39,0,.72.05,1,.16.28.11.5.27.66.48.16.21.23.46.24.76,0,.31-.07.58-.21.81-.14.22-.32.4-.56.52-.23.12-.49.18-.77.18s-.56-.07-.85-.21v-.08c.18.03.34.05.49.04s.29-.03.45-.08c.16-.05.31-.14.45-.26s.25-.31.33-.55c.02-.06.04-.13.04-.22,0-.08.01-.16.01-.23,0-.34-.12-.6-.35-.79-.23-.19-.55-.29-.96-.28h-.81c-.03-.08-.06-.16-.09-.24h.92ZM145.4,29.38h.02c0,.12.06.23.15.31.09.09.2.13.34.13,0,0,.04,0,.12,0v.08s-.72,0-.72,0l.1-.53Z"/><path class="cls-2" d="M149.15,29.29c-.06.17-.05.29.03.38s.17.14.27.14h.07s0,.08,0,.08h-1.58s0-.07,0-.07h.07c.12,0,.23-.04.36-.12.12-.08.22-.21.31-.4h.49ZM150.72,24.8l.06.57-1.87,4.5h-.52s1.94-4.21,1.94-4.21c.06-.13.11-.25.15-.34.04-.1.08-.19.11-.29.03-.09.05-.17.06-.22h.07ZM151.71,27.95v.25s-2.19.01-2.19.01v-.25s2.19-.01,2.19-.01ZM150.72,24.8l2.3,5.02h-.65s-1.79-4.28-1.79-4.28l.14-.74ZM152.14,29.27h.63c.08.18.19.32.31.4.12.08.24.12.35.12h.07s0,.08,0,.08h-1.7s0-.07,0-.07h.07c.09,0,.18-.05.26-.14.08-.09.08-.22.02-.39Z"/><path class="cls-2" d="M152.97,24.76c.05.02.13.04.23.06.1.02.22.04.34.05.13.01.25.02.36.02l-.93.09v-.22ZM157.51,24.87v.25s-4.54.03-4.54.03v-.25s4.54-.03,4.54-.03ZM153.48,25.12v.02c-.13,0-.23.05-.3.13-.07.08-.11.18-.11.29v.13s-.09,0-.09,0v-.57s.5,0,.5,0ZM155.01,29.33v.53s-.6,0-.6,0v-.08s.04,0,.1,0c.13,0,.25-.05.34-.13.09-.09.14-.19.15-.32h.02ZM155.51,24.91l.03,4.94h-.54s-.03-4.94-.03-4.94h.54ZM155.51,29.33h.02c0,.12.06.23.15.31.09.09.21.13.34.13h.09s0,.08,0,.08h-.6s0-.53,0-.53ZM157.51,24.74v.22s-.93-.08-.93-.08c.11,0,.23,0,.35-.02.12-.01.24-.03.34-.06.1-.02.18-.04.23-.06ZM157.51,25.1v.57s-.09,0-.09,0v-.13c0-.12-.04-.21-.11-.29-.07-.08-.18-.12-.3-.13v-.02h.5Z"/><path class="cls-2" d="M158.69,25.4h-.02c0-.13-.06-.23-.15-.32-.09-.09-.2-.13-.34-.13h-.1s0-.08,0-.08h.6s0,.53,0,.53ZM158.71,29.31v.53s-.6,0-.6,0v-.08s.1,0,.1,0c.13,0,.24-.05.33-.13.09-.09.14-.19.14-.32h.02ZM159.19,24.87l.03,4.97h-.53s-.03-4.96-.03-4.96h.53ZM162.34,27.24v.25s-3.23.02-3.23.02v-.25s3.23-.02,3.23-.02ZM159.17,25.4v-.53s.6,0,.6,0v.08h-.1c-.13,0-.25.04-.34.13-.09.09-.14.19-.14.32h-.02ZM159.19,29.3h.02c0,.12.05.23.14.31.09.09.21.13.34.13h.1s0,.08,0,.08h-.6s0-.53,0-.53ZM162.27,25.38h-.02c0-.13-.06-.23-.15-.32s-.2-.13-.34-.13h-.1s0-.08,0-.08h.6s0,.53,0,.53ZM162.3,29.29v.53s-.6,0-.6,0v-.08s.1,0,.1,0c.13,0,.24-.05.33-.13.09-.09.14-.19.14-.32h.02ZM162.78,24.85l.03,4.97h-.53s-.03-4.96-.03-4.96h.53ZM162.75,25.38v-.53s.6,0,.6,0v.08h-.1c-.13,0-.24.04-.33.13s-.14.19-.14.32h-.02ZM162.78,29.28h.02c0,.12.06.23.15.31.09.09.2.13.34.13h.1s0,.08,0,.08h-.6s0-.53,0-.53Z"/><path class="cls-2" d="M165.33,25.36l-.7-.02c-.09-.13-.2-.23-.33-.3-.13-.07-.28-.11-.44-.11h-.1s0-.08,0-.08h1.92s0,.07,0,.07h-.1c-.12,0-.21.05-.26.15-.05.1-.05.19,0,.29ZM165.04,24.84l1.55,2.71-.34.29-1.93-3h.72ZM166.2,29.26v.53s-.6,0-.6,0v-.08s.04,0,.1,0c.13,0,.24-.05.33-.13.09-.09.14-.19.14-.32h.02ZM166.71,27.66v2.14s-.53,0-.53,0v-2.14s.53,0,.53,0ZM168.08,24.83h.52s-1.95,3-1.95,3l-.31-.09,1.74-2.91ZM166.69,29.26h.02c0,.12.06.23.15.31.09.09.2.13.34.13h.1s0,.08,0,.08h-.6s0-.53,0-.53ZM167.77,25.35c.06-.11.06-.21,0-.31-.06-.09-.14-.14-.27-.14h-.1s0-.08,0-.08h1.73s0,.07,0,.07h-.1c-.15,0-.3.04-.43.13-.13.09-.24.18-.32.3l-.52.03Z"/><g class="cls-65"><rect class="cls-91" x="78.79" y="27.2" width=".15" height=".33"/><rect class="cls-29" x="78.94" y="27.2" width=".15" height=".33"/><rect class="cls-92" x="79.08" y="27.2" width=".15" height=".33"/><rect class="cls-12" x="79.23" y="27.2" width=".15" height=".33"/><rect class="cls-77" x="79.38" y="27.2" width=".15" height=".33"/><rect class="cls-77" x="79.52" y="27.2" width=".15" height=".33"/><rect class="cls-130" x="79.67" y="27.2" width=".15" height=".33"/><rect class="cls-68" x="79.81" y="27.2" width=".15" height=".33"/><rect class="cls-68" x="79.96" y="27.2" width=".15" height=".33"/><rect class="cls-59" x="80.1" y="27.2" width=".15" height=".33"/><rect class="cls-59" x="80.25" y="27.2" width=".15" height=".33"/><rect class="cls-126" x="80.4" y="27.2" width=".15" height=".33"/><rect class="cls-58" x="80.54" y="27.2" width=".15" height=".33"/><rect class="cls-58" x="80.69" y="27.2" width=".15" height=".33"/><rect class="cls-58" x="80.83" y="27.2" width=".15" height=".33"/><rect class="cls-38" x="80.98" y="27.2" width=".15" height=".33"/><rect class="cls-38" x="81.13" y="27.2" width=".15" height=".33"/><rect class="cls-70" x="81.27" y="27.2" width=".15" height=".33"/><rect class="cls-70" x="81.42" y="27.2" width=".15" height=".33"/><rect class="cls-135" x="81.56" y="27.2" width=".15" height=".33"/><rect class="cls-104" x="81.71" y="27.2" width=".15" height=".33"/><rect class="cls-104" x="81.86" y="27.2" width=".15" height=".33"/><rect class="cls-89" x="82" y="27.2" width=".15" height=".33"/><rect class="cls-28" x="82.15" y="27.2" width=".15" height=".33"/><rect class="cls-95" x="82.29" y="27.2" width=".15" height=".33"/><rect class="cls-95" x="82.44" y="27.2" width=".15" height=".33"/><rect class="cls-86" x="82.59" y="27.2" width=".15" height=".33"/><rect class="cls-20" x="82.73" y="27.2" width=".15" height=".33"/><rect class="cls-20" x="82.88" y="27.2" width=".15" height=".33"/><rect class="cls-79" x="83.02" y="27.2" width=".15" height=".33"/><rect class="cls-79" x="83.17" y="27.2" width=".15" height=".33"/><rect class="cls-79" x="83.32" y="27.2" width=".15" height=".33"/><rect class="cls-61" x="83.46" y="27.2" width=".15" height=".33"/><rect class="cls-61" x="83.61" y="27.2" width=".15" height=".33"/><rect class="cls-56" x="83.75" y="27.2" width=".15" height=".33"/><rect class="cls-56" x="83.9" y="27.2" width=".15" height=".33"/><rect class="cls-125" x="84.05" y="27.2" width=".15" height=".33"/><rect class="cls-43" x="84.19" y="27.2" width=".15" height=".33"/><rect class="cls-43" x="84.34" y="27.2" width=".15" height=".33"/><rect class="cls-43" x="84.48" y="27.2" width=".15" height=".33"/><rect class="cls-31" x="84.63" y="27.2" width=".15" height=".33"/><rect class="cls-53" x="84.78" y="27.2" width=".15" height=".33"/><rect class="cls-53" x="84.92" y="27.2" width=".15" height=".33"/><rect class="cls-54" x="85.07" y="27.2" width=".15" height=".33"/><rect class="cls-119" x="85.21" y="27.2" width=".15" height=".33"/><rect class="cls-119" x="85.36" y="27.2" width=".15" height=".33"/><rect class="cls-52" x="85.5" y="27.2" width=".15" height=".33"/><rect class="cls-52" x="85.65" y="27.2" width=".15" height=".33"/><rect class="cls-102" x="85.8" y="27.2" width=".15" height=".33"/><rect class="cls-127" x="85.94" y="27.2" width=".15" height=".33"/><rect class="cls-127" x="86.09" y="27.2" width=".15" height=".33"/><rect class="cls-113" x="86.23" y="27.2" width=".15" height=".33"/><rect class="cls-113" x="86.38" y="27.2" width=".15" height=".33"/><rect class="cls-113" x="86.53" y="27.2" width=".15" height=".33"/><rect class="cls-19" x="86.67" y="27.2" width=".15" height=".33"/><rect class="cls-76" x="86.82" y="27.2" width=".15" height=".33"/><rect class="cls-51" x="86.96" y="27.2" width=".15" height=".33"/><rect class="cls-46" x="87.11" y="27.2" width=".15" height=".33"/><rect class="cls-46" x="87.26" y="27.2" width=".15" height=".33"/><rect class="cls-111" x="87.4" y="27.2" width=".15" height=".33"/><rect class="cls-8" x="87.55" y="27.2" width=".15" height=".33"/><rect class="cls-8" x="87.69" y="27.2" width=".15" height=".33"/><rect class="cls-24" x="87.84" y="27.2" width=".15" height=".33"/><rect class="cls-124" x="87.99" y="27.2" width=".15" height=".33"/><rect class="cls-124" x="88.13" y="27.2" width=".15" height=".33"/><rect class="cls-9" x="88.28" y="27.2" width=".15" height=".33"/><rect class="cls-82" x="88.42" y="27.2" width=".15" height=".33"/><rect class="cls-82" x="88.57" y="27.2" width=".15" height=".33"/><rect class="cls-13" x="88.72" y="27.2" width=".15" height=".33"/><rect class="cls-81" x="88.86" y="27.2" width=".15" height=".33"/><rect class="cls-81" x="89.01" y="27.2" width=".15" height=".33"/><rect class="cls-134" x="89.15" y="27.2" width=".15" height=".33"/><rect class="cls-66" x="89.3" y="27.2" width=".15" height=".33"/><rect class="cls-66" x="89.45" y="27.2" width=".15" height=".33"/><rect class="cls-131" x="89.59" y="27.2" width=".15" height=".33"/><rect class="cls-131" x="89.74" y="27.2" width=".15" height=".33"/><rect class="cls-72" x="89.88" y="27.2" width=".15" height=".33"/><rect class="cls-27" x="90.03" y="27.2" width=".15" height=".33"/><rect class="cls-27" x="90.18" y="27.2" width=".15" height=".33"/><rect class="cls-25" x="90.32" y="27.2" width=".15" height=".33"/><rect class="cls-98" x="90.47" y="27.2" width=".15" height=".33"/><rect class="cls-98" x="90.61" y="27.2" width=".15" height=".33"/><rect class="cls-32" x="90.76" y="27.2" width=".15" height=".33"/><rect class="cls-45" x="90.9" y="27.2" width=".15" height=".33"/><rect class="cls-45" x="91.05" y="27.2" width=".15" height=".33"/><rect class="cls-42" x="91.2" y="27.2" width=".15" height=".33"/><rect class="cls-69" x="91.34" y="27.2" width=".15" height=".33"/><rect class="cls-133" x="91.49" y="27.2" width=".15" height=".33"/><rect class="cls-133" x="91.63" y="27.2" width=".15" height=".33"/><rect class="cls-83" x="91.78" y="27.2" width=".15" height=".33"/><rect class="cls-132" x="91.93" y="27.2" width=".15" height=".33"/><rect class="cls-85" x="92.07" y="27.2" width=".15" height=".33"/><rect class="cls-5" x="92.22" y="27.2" width=".15" height=".33"/><rect class="cls-109" x="92.36" y="27.2" width=".15" height=".33"/><rect class="cls-109" x="92.51" y="27.2" width=".15" height=".33"/><rect class="cls-118" x="92.66" y="27.2" width=".15" height=".33"/><rect class="cls-74" x="92.8" y="27.2" width=".15" height=".33"/><rect class="cls-74" x="92.95" y="27.2" width=".15" height=".33"/><rect class="cls-14" x="93.09" y="27.2" width=".15" height=".33"/><rect class="cls-14" x="93.24" y="27.2" width=".15" height=".33"/><rect class="cls-14" x="93.39" y="27.2" width=".15" height=".33"/><rect class="cls-16" x="93.53" y="27.2" width=".15" height=".33"/><rect class="cls-16" x="93.68" y="27.2" width=".15" height=".33"/><rect class="cls-16" x="93.82" y="27.2" width=".15" height=".33"/><rect class="cls-120" x="93.97" y="27.2" width=".15" height=".33"/><rect class="cls-60" x="94.12" y="27.2" width=".15" height=".33"/><rect class="cls-108" x="94.26" y="27.2" width=".15" height=".33"/><rect class="cls-48" x="94.41" y="27.2" width=".15" height=".33"/><rect class="cls-48" x="94.55" y="27.2" width=".15" height=".33"/><rect class="cls-110" x="94.7" y="27.2" width=".15" height=".33"/><rect class="cls-33" x="94.85" y="27.2" width=".15" height=".33"/><rect class="cls-33" x="94.99" y="27.2" width=".15" height=".33"/><rect class="cls-6" x="95.14" y="27.2" width=".15" height=".33"/><rect class="cls-34" x="95.28" y="27.2" width=".15" height=".33"/><rect class="cls-37" x="95.43" y="27.2" width=".15" height=".33"/><rect class="cls-37" x="95.58" y="27.2" width=".15" height=".33"/><rect class="cls-26" x="95.72" y="27.2" width=".15" height=".33"/><rect class="cls-50" x="95.87" y="27.2" width=".15" height=".33"/><rect class="cls-50" x="96.01" y="27.2" width=".15" height=".33"/><rect class="cls-73" x="96.16" y="27.2" width=".15" height=".33"/><rect class="cls-73" x="96.3" y="27.2" width=".15" height=".33"/><rect class="cls-73" x="96.45" y="27.2" width=".15" height=".33"/><rect class="cls-112" x="96.6" y="27.2" width=".15" height=".33"/><rect class="cls-112" x="96.74" y="27.2" width=".15" height=".33"/><rect class="cls-49" x="96.89" y="27.2" width=".15" height=".33"/><rect class="cls-97" x="97.03" y="27.2" width=".15" height=".33"/><rect class="cls-97" x="97.18" y="27.2" width=".15" height=".33"/><rect class="cls-35" x="97.33" y="27.2" width=".15" height=".33"/><rect class="cls-4" x="97.47" y="27.2" width=".15" height=".33"/><rect class="cls-88" x="97.62" y="27.2" width=".15" height=".33"/><rect class="cls-88" x="97.76" y="27.2" width=".15" height=".33"/><rect class="cls-88" x="97.91" y="27.2" width=".15" height=".33"/><rect class="cls-10" x="98.06" y="27.2" width=".15" height=".33"/><rect class="cls-10" x="98.2" y="27.2" width=".15" height=".33"/><rect class="cls-78" x="98.35" y="27.2" width=".15" height=".33"/><rect class="cls-90" x="98.49" y="27.2" width=".15" height=".33"/><rect class="cls-90" x="98.64" y="27.2" width=".15" height=".33"/><rect class="cls-21" x="98.79" y="27.2" width=".15" height=".33"/><rect class="cls-107" x="98.93" y="27.2" width=".15" height=".33"/><rect class="cls-7" x="99.08" y="27.2" width=".15" height=".33"/><rect class="cls-7" x="99.22" y="27.2" width=".15" height=".33"/><rect class="cls-55" x="99.37" y="27.2" width=".15" height=".33"/><rect class="cls-106" x="99.52" y="27.2" width=".15" height=".33"/><rect class="cls-106" x="99.66" y="27.2" width=".15" height=".33"/><rect class="cls-99" x="99.81" y="27.2" width=".15" height=".33"/><rect class="cls-105" x="99.95" y="27.2" width=".15" height=".33"/><rect class="cls-40" x="100.1" y="27.2" width=".15" height=".33"/><rect class="cls-93" x="100.25" y="27.2" width=".15" height=".33"/><rect class="cls-93" x="100.39" y="27.2" width=".15" height=".33"/><rect class="cls-44" x="100.54" y="27.2" width=".15" height=".33"/><rect class="cls-44" x="100.68" y="27.2" width=".15" height=".33"/><rect class="cls-87" x="100.83" y="27.2" width=".15" height=".33"/><rect class="cls-87" x="100.98" y="27.2" width=".15" height=".33"/><rect class="cls-116" x="101.12" y="27.2" width=".15" height=".33"/><rect class="cls-84" x="101.27" y="27.2" width=".15" height=".33"/><rect class="cls-63" x="101.41" y="27.2" width=".15" height=".33"/><rect class="cls-117" x="101.56" y="27.2" width=".15" height=".33"/><rect class="cls-17" x="101.7" y="27.2" width=".15" height=".33"/><rect class="cls-80" x="101.85" y="27.2" width=".15" height=".33"/><rect class="cls-80" x="102" y="27.2" width=".15" height=".33"/><rect class="cls-115" x="102.14" y="27.2" width=".15" height=".33"/><rect class="cls-115" x="102.29" y="27.2" width=".15" height=".33"/><rect class="cls-123" x="102.43" y="27.2" width=".15" height=".33"/><rect class="cls-114" x="102.58" y="27.2" width=".15" height=".33"/><rect class="cls-22" x="102.73" y="27.2" width=".15" height=".33"/><rect class="cls-22" x="102.87" y="27.2" width=".15" height=".33"/><rect class="cls-94" x="103.02" y="27.2" width=".15" height=".33"/><rect class="cls-94" x="103.16" y="27.2" width=".15" height=".33"/><rect class="cls-96" x="103.31" y="27.2" width=".15" height=".33"/><rect class="cls-11" x="103.46" y="27.2" width=".15" height=".33"/><rect class="cls-62" x="103.6" y="27.2" width=".15" height=".33"/><rect class="cls-62" x="103.75" y="27.2" width=".15" height=".33"/><rect class="cls-57" x="103.89" y="27.2" width=".15" height=".33"/><rect class="cls-101" x="104.04" y="27.2" width=".15" height=".33"/><rect class="cls-103" x="104.19" y="27.2" width=".15" height=".33"/><rect class="cls-41" x="104.33" y="27.2" width=".15" height=".33"/><rect class="cls-122" x="104.48" y="27.2" width=".15" height=".33"/><rect class="cls-15" x="104.62" y="27.2" width=".15" height=".33"/><rect class="cls-15" x="104.77" y="27.2" width=".15" height=".33"/><rect class="cls-3" x="104.92" y="27.2" width=".15" height=".33"/><rect class="cls-100" x="105.06" y="27.2" width=".15" height=".33"/><rect class="cls-67" x="105.21" y="27.2" width=".15" height=".33"/><rect class="cls-39" x="105.35" y="27.2" width=".15" height=".33"/><rect class="cls-18" x="105.5" y="27.2" width=".15" height=".33"/><rect class="cls-23" x="105.65" y="27.2" width=".15" height=".33"/><rect class="cls-23" x="105.79" y="27.2" width=".15" height=".33"/><rect class="cls-75" x="105.94" y="27.2" width=".15" height=".33"/><rect class="cls-47" x="106.08" y="27.2" width=".15" height=".33"/><rect class="cls-71" x="106.23" y="27.2" width=".15" height=".33"/><rect class="cls-36" x="106.38" y="27.2" width=".15" height=".33"/><rect class="cls-128" x="106.52" y="27.2" width=".15" height=".33"/></g><circle class="cls-121" cx="50.11" cy="5.91" r="1.41"/></svg>