<?xml version="1.0" encoding="UTF-8"?><svg id="Layer_1" xmlns="http://www.w3.org/2000/svg" xmlns:xlink="http://www.w3.org/1999/xlink" viewBox="0 0 213 38"><defs><style>.cls-1{fill:none;}.cls-2{fill:#262626;}.cls-3{fill:#30b179;}.cls-4{fill:#38a191;}.cls-5{fill:#3d959f;}.cls-6{fill:#3b9b97;}.cls-7{fill:#36a48c;}.cls-8{fill:#428aa9;}.cls-9{fill:#418ca8;}.cls-10{fill:#37a28f;}.cls-11{fill:#31ae7f;}.cls-12{fill:#4876b8;}.cls-13{fill:#418da7;}.cls-14{fill:#3c979c;}.cls-15{fill:#30b07a;}.cls-16{fill:#3c989b;}.cls-17{fill:#33aa85;}.cls-18{fill:#2fb277;}.cls-19{fill:#4388ab;}.cls-20{fill:#467eb1;}.cls-21{fill:#37a38d;}.cls-22{fill:#32ac81;}.cls-23{fill:#2eb376;}.cls-24{fill:#418aa8;}.cls-25{fill:#3f90a3;}.cls-26{fill:#3a9d96;}.cls-27{fill:#4090a4;}.cls-28{fill:#467db3;}.cls-29{fill:#4875b9;}.cls-30{fill:#231f20;}.cls-31{fill:#4583ae;}.cls-32{fill:#3f91a2;}.cls-33{fill:#3b9b98;}.cls-34{fill:#3a9c97;}.cls-35{fill:#38a091;}.cls-36{fill:#2cb574;}.cls-37{fill:#3a9c96;}.cls-38{fill:#477ab4;}.cls-39{fill:#2fb278;}.cls-40{fill:#35a689;}.cls-41{fill:#30af7b;}.cls-42{fill:#3e92a1;}.cls-43{fill:#4582af;}.cls-44{fill:#35a788;}.cls-45{fill:#3f92a2;}.cls-46{fill:#4289aa;}.cls-47{fill:#2db475;}.cls-48{fill:#3b9a99;}.cls-49{fill:#399f92;}.cls-50{fill:#3a9d95;}.cls-51{fill:#4288aa;}.cls-52{fill:#4485ad;}.cls-53{fill:#4483ae;}.cls-54{fill:#4484ae;}.cls-55{fill:#36a58c;}.cls-56{fill:#4581b0;}.cls-57{fill:#31ae7d;}.cls-58{fill:#4779b5;}.cls-59{fill:#4878b6;}.cls-60{fill:#3b999a;}.cls-61{fill:#4580b0;}.cls-62{fill:#31ae7e;}.cls-63{fill:#34a985;}.cls-64{clip-path:url(#clippath-1);}.cls-65{clip-path:url(#clippath-3);}.cls-66{clip-path:url(#clippath-2);}.cls-67{fill:#408ea5;}.cls-68{fill:#2fb178;}.cls-69{fill:#4877b6;}.cls-70{fill:#3e93a1;}.cls-71{fill:#477bb4;}.cls-72{fill:#2cb474;}.cls-73{fill:#408fa4;}.cls-74{fill:#399e94;}.cls-75{fill:#3d969d;}.cls-76{fill:#2db375;}.cls-77{fill:#fff;}.cls-78{fill:#4388aa;}.cls-79{fill:#4876b7;}.cls-80{fill:#37a28e;}.cls-81{fill:#467fb1;}.cls-82{fill:#33aa84;}.cls-83{fill:#418da6;}.cls-84{fill:#418ca7;}.cls-85{fill:#3e94a0;}.cls-86{fill:#34a986;}.cls-87{fill:#3d949f;}.cls-88{fill:#467eb2;}.cls-89{fill:#34a887;}.cls-90{fill:#38a190;}.cls-91{fill:#467cb3;}.cls-92{fill:#37a38e;}.cls-93{fill:#4875ba;}.cls-94{fill:#4875b8;}.cls-95{fill:#35a789;}.cls-96{fill:#32ad80;}.cls-97{fill:#467db2;}.cls-98{fill:#32ad7f;}.cls-99{fill:#38a092;}.cls-100{fill:#3f91a3;}.cls-101{fill:#36a68a;}.cls-102{fill:#2fb179;}.cls-103{fill:#31af7d;}.cls-104{fill:#4486ac;}.cls-105{fill:#31af7c;}.cls-106{fill:#477cb3;}.cls-107{fill:#35a68a;}.cls-108{fill:#36a58b;}.cls-109{fill:#37a48d;}.cls-110{fill:#3b9999;}.cls-111{fill:#3d959e;}.cls-112{fill:#3b9a98;}.cls-113{fill:#4289a9;}.cls-114{fill:#399f93;}.cls-115{fill:#4387ab;}.cls-116{fill:#32ac82;}.cls-117{fill:#33ab83;}.cls-118{fill:#34a886;}.cls-119{fill:#33a985;}.cls-120{fill:#3d969e;}.cls-121{fill:#4484ad;}.cls-122{fill:#3c999a;}.cls-123{fill:#6bbc45;}.cls-124{fill:#30b07b;}.cls-125{fill:#32ab82;}.cls-126{fill:#418ba8;}.cls-127{fill:#4581af;}.cls-128{fill:#4878b5;}.cls-129{fill:#4386ac;}.cls-130{fill:#2bb673;}.cls-131{clip-path:url(#clippath);}.cls-132{fill:#4877b7;}.cls-133{fill:#408fa5;}.cls-134{fill:#3e949f;}.cls-135{fill:#3e93a0;}.cls-136{fill:#408ea6;}.cls-137{fill:#477bb3;}</style><clipPath id="clippath"><path class="cls-1" d="M23.22,24.21c-1.6,4.25-3.19,8.5-4.79,12.75h-.15c-.47-1.22-.94-2.43-1.41-3.63-2.11-5.36-4.22-10.72-6.32-16.09-.85-2.18-1.67-4.38-2.52-6.56-.64-1.62-1.26-3.24-1.99-4.82-.57-1.22-1.45-2.17-2.94-2.34-.02-.12-.04-.22-.04-.33,0-.09.01-.17.02-.3h11.19v.6c-.4.06-.8.1-1.19.17-.38.06-.77.11-1.14.23-.84.28-1.17.77-.93,1.62.33,1.17.78,2.3,1.22,3.43,1.42,3.63,2.86,7.24,4.29,10.86.81,2.05,1.61,4.1,2.44,6.14.57,1.42,1.36,1.59,2.38.46.53-.58.91-1.29,1.36-1.94.09-.13.2-.26.31-.38.07.04.15.08.22.12Z"/></clipPath><clipPath id="clippath-1"><path class="cls-1" d="M27.14,13.14c.19-.93.4-1.82.56-2.72.23-1.34.32-2.69.07-4.05-.32-1.71-1.63-2.83-3.45-2.93q-.53-.03-.42-.56h11.03c.01.18.02.33.03.51-1.53.16-2.47,1.17-3.32,2.26-1.65,2.11-2.79,4.52-3.89,6.94-.1.23-.08.65-.6.56Z"/></clipPath><clipPath id="clippath-2"><rect class="cls-1" x="42.44" y="27.31" width="27.88" height=".33"/></clipPath><clipPath id="clippath-3"><rect class="cls-77" x="135.13" y="15.91" width="72.97" height=".25"/></clipPath></defs><g class="cls-131"><rect class="cls-93" x="3.05" y="2.89" width="0" height="34.07"/><rect class="cls-93" x="3.05" y="2.89" width=".11" height="34.07"/><rect class="cls-29" x="3.16" y="2.89" width=".11" height="34.07"/><rect class="cls-94" x="3.26" y="2.89" width=".11" height="34.07"/><rect class="cls-12" x="3.37" y="2.89" width=".11" height="34.07"/><rect class="cls-79" x="3.47" y="2.89" width=".11" height="34.07"/><rect class="cls-79" x="3.58" y="2.89" width=".11" height="34.07"/><rect class="cls-132" x="3.69" y="2.89" width=".11" height="34.07"/><rect class="cls-69" x="3.79" y="2.89" width=".11" height="34.07"/><rect class="cls-69" x="3.9" y="2.89" width=".11" height="34.07"/><rect class="cls-59" x="4" y="2.89" width=".11" height="34.07"/><rect class="cls-59" x="4.11" y="2.89" width=".11" height="34.07"/><rect class="cls-128" x="4.21" y="2.89" width=".11" height="34.07"/><rect class="cls-58" x="4.32" y="2.89" width=".11" height="34.07"/><rect class="cls-58" x="4.42" y="2.89" width=".11" height="34.07"/><rect class="cls-58" x="4.53" y="2.89" width=".11" height="34.07"/><rect class="cls-38" x="4.64" y="2.89" width=".11" height="34.07"/><rect class="cls-38" x="4.74" y="2.89" width=".11" height="34.07"/><rect class="cls-71" x="4.85" y="2.89" width=".11" height="34.07"/><rect class="cls-71" x="4.95" y="2.89" width=".11" height="34.07"/><rect class="cls-137" x="5.06" y="2.89" width=".11" height="34.07"/><rect class="cls-106" x="5.16" y="2.89" width=".11" height="34.07"/><rect class="cls-106" x="5.27" y="2.89" width=".11" height="34.07"/><rect class="cls-91" x="5.38" y="2.89" width=".11" height="34.07"/><rect class="cls-28" x="5.48" y="2.89" width=".11" height="34.07"/><rect class="cls-97" x="5.59" y="2.89" width=".11" height="34.07"/><rect class="cls-97" x="5.69" y="2.89" width=".11" height="34.07"/><rect class="cls-88" x="5.8" y="2.89" width=".11" height="34.07"/><rect class="cls-20" x="5.9" y="2.89" width=".11" height="34.07"/><rect class="cls-20" x="6.01" y="2.89" width=".11" height="34.07"/><rect class="cls-81" x="6.11" y="2.89" width=".11" height="34.07"/><rect class="cls-81" x="6.22" y="2.89" width=".11" height="34.07"/><rect class="cls-81" x="6.33" y="2.89" width=".11" height="34.07"/><rect class="cls-61" x="6.43" y="2.89" width=".11" height="34.07"/><rect class="cls-61" x="6.54" y="2.89" width=".11" height="34.07"/><rect class="cls-56" x="6.64" y="2.89" width=".11" height="34.07"/><rect class="cls-56" x="6.75" y="2.89" width=".11" height="34.07"/><rect class="cls-127" x="6.85" y="2.89" width=".11" height="34.07"/><rect class="cls-43" x="6.96" y="2.89" width=".11" height="34.07"/><rect class="cls-43" x="7.07" y="2.89" width=".11" height="34.07"/><rect class="cls-43" x="7.17" y="2.89" width=".11" height="34.07"/><rect class="cls-31" x="7.28" y="2.89" width=".11" height="34.07"/><rect class="cls-53" x="7.38" y="2.89" width=".11" height="34.07"/><rect class="cls-53" x="7.49" y="2.89" width=".11" height="34.07"/><rect class="cls-54" x="7.59" y="2.89" width=".11" height="34.07"/><rect class="cls-121" x="7.7" y="2.89" width=".11" height="34.07"/><rect class="cls-121" x="7.8" y="2.89" width=".11" height="34.07"/><rect class="cls-52" x="7.91" y="2.89" width=".11" height="34.07"/><rect class="cls-52" x="8.02" y="2.89" width=".11" height="34.07"/><rect class="cls-104" x="8.12" y="2.89" width=".11" height="34.07"/><rect class="cls-129" x="8.23" y="2.89" width=".11" height="34.07"/><rect class="cls-129" x="8.33" y="2.89" width=".11" height="34.07"/><rect class="cls-115" x="8.44" y="2.89" width=".11" height="34.07"/><rect class="cls-115" x="8.54" y="2.89" width=".11" height="34.07"/><rect class="cls-115" x="8.65" y="2.89" width=".11" height="34.07"/><rect class="cls-19" x="8.76" y="2.89" width=".11" height="34.07"/><rect class="cls-78" x="8.86" y="2.89" width=".11" height="34.07"/><rect class="cls-51" x="8.97" y="2.89" width=".11" height="34.07"/><rect class="cls-46" x="9.07" y="2.89" width=".11" height="34.07"/><rect class="cls-46" x="9.18" y="2.89" width=".11" height="34.07"/><rect class="cls-113" x="9.28" y="2.89" width=".11" height="34.07"/><rect class="cls-8" x="9.39" y="2.89" width=".11" height="34.07"/><rect class="cls-8" x="9.49" y="2.89" width=".11" height="34.07"/><rect class="cls-24" x="9.6" y="2.89" width=".11" height="34.07"/><rect class="cls-126" x="9.71" y="2.89" width=".11" height="34.07"/><rect class="cls-126" x="9.81" y="2.89" width=".11" height="34.07"/><rect class="cls-9" x="9.92" y="2.89" width=".11" height="34.07"/><rect class="cls-84" x="10.02" y="2.89" width=".11" height="34.07"/><rect class="cls-84" x="10.13" y="2.89" width=".11" height="34.07"/><rect class="cls-13" x="10.23" y="2.89" width=".11" height="34.07"/><rect class="cls-83" x="10.34" y="2.89" width=".11" height="34.07"/><rect class="cls-83" x="10.45" y="2.89" width=".11" height="34.07"/><rect class="cls-136" x="10.55" y="2.89" width=".11" height="34.07"/><rect class="cls-67" x="10.66" y="2.89" width=".11" height="34.07"/><rect class="cls-67" x="10.76" y="2.89" width=".11" height="34.07"/><rect class="cls-133" x="10.87" y="2.89" width=".11" height="34.07"/><rect class="cls-133" x="10.97" y="2.89" width=".11" height="34.07"/><rect class="cls-73" x="11.08" y="2.89" width=".11" height="34.07"/><rect class="cls-27" x="11.18" y="2.89" width=".11" height="34.07"/><rect class="cls-27" x="11.29" y="2.89" width=".11" height="34.07"/><rect class="cls-25" x="11.4" y="2.89" width=".11" height="34.07"/><rect class="cls-100" x="11.5" y="2.89" width=".11" height="34.07"/><rect class="cls-100" x="11.61" y="2.89" width=".11" height="34.07"/><rect class="cls-32" x="11.71" y="2.89" width=".11" height="34.07"/><rect class="cls-45" x="11.82" y="2.89" width=".11" height="34.07"/><rect class="cls-45" x="11.92" y="2.89" width=".11" height="34.07"/><rect class="cls-42" x="12.03" y="2.89" width=".11" height="34.07"/><rect class="cls-70" x="12.13" y="2.89" width=".11" height="34.07"/><rect class="cls-135" x="12.24" y="2.89" width=".11" height="34.07"/><rect class="cls-135" x="12.35" y="2.89" width=".11" height="34.07"/><rect class="cls-85" x="12.45" y="2.89" width=".11" height="34.07"/><rect class="cls-134" x="12.56" y="2.89" width=".11" height="34.07"/><rect class="cls-87" x="12.66" y="2.89" width=".11" height="34.07"/><rect class="cls-5" x="12.77" y="2.89" width=".11" height="34.07"/><rect class="cls-111" x="12.87" y="2.89" width=".11" height="34.07"/><rect class="cls-111" x="12.98" y="2.89" width=".11" height="34.07"/><rect class="cls-120" x="13.09" y="2.89" width=".11" height="34.07"/><rect class="cls-75" x="13.19" y="2.89" width=".11" height="34.07"/><rect class="cls-75" x="13.3" y="2.89" width=".11" height="34.07"/><rect class="cls-14" x="13.4" y="2.89" width=".11" height="34.07"/><rect class="cls-14" x="13.51" y="2.89" width=".11" height="34.07"/><rect class="cls-14" x="13.61" y="2.89" width=".11" height="34.07"/><rect class="cls-16" x="13.72" y="2.89" width=".11" height="34.07"/><rect class="cls-16" x="13.82" y="2.89" width=".11" height="34.07"/><rect class="cls-16" x="13.93" y="2.89" width=".11" height="34.07"/><rect class="cls-122" x="14.04" y="2.89" width=".11" height="34.07"/><rect class="cls-60" x="14.14" y="2.89" width=".11" height="34.07"/><rect class="cls-110" x="14.25" y="2.89" width=".11" height="34.07"/><rect class="cls-48" x="14.35" y="2.89" width=".11" height="34.07"/><rect class="cls-48" x="14.46" y="2.89" width=".11" height="34.07"/><rect class="cls-112" x="14.56" y="2.89" width=".11" height="34.07"/><rect class="cls-33" x="14.67" y="2.89" width=".11" height="34.07"/><rect class="cls-33" x="14.78" y="2.89" width=".11" height="34.07"/><rect class="cls-6" x="14.88" y="2.89" width=".11" height="34.07"/><rect class="cls-34" x="14.99" y="2.89" width=".11" height="34.07"/><rect class="cls-37" x="15.09" y="2.89" width=".11" height="34.07"/><rect class="cls-37" x="15.2" y="2.89" width=".11" height="34.07"/><rect class="cls-26" x="15.3" y="2.89" width=".11" height="34.07"/><rect class="cls-50" x="15.41" y="2.89" width=".11" height="34.07"/><rect class="cls-50" x="15.51" y="2.89" width=".11" height="34.07"/><rect class="cls-74" x="15.62" y="2.89" width=".11" height="34.07"/><rect class="cls-74" x="15.73" y="2.89" width=".11" height="34.07"/><rect class="cls-74" x="15.83" y="2.89" width=".11" height="34.07"/><rect class="cls-114" x="15.94" y="2.89" width=".11" height="34.07"/><rect class="cls-114" x="16.04" y="2.89" width=".11" height="34.07"/><rect class="cls-49" x="16.15" y="2.89" width=".11" height="34.07"/><rect class="cls-99" x="16.25" y="2.89" width=".11" height="34.07"/><rect class="cls-99" x="16.36" y="2.89" width=".11" height="34.07"/><rect class="cls-35" x="16.47" y="2.89" width=".11" height="34.07"/><rect class="cls-4" x="16.57" y="2.89" width=".11" height="34.07"/><rect class="cls-90" x="16.68" y="2.89" width=".11" height="34.07"/><rect class="cls-90" x="16.78" y="2.89" width=".11" height="34.07"/><rect class="cls-90" x="16.89" y="2.89" width=".11" height="34.07"/><rect class="cls-10" x="16.99" y="2.89" width=".11" height="34.07"/><rect class="cls-10" x="17.1" y="2.89" width=".11" height="34.07"/><rect class="cls-80" x="17.2" y="2.89" width=".11" height="34.07"/><rect class="cls-92" x="17.31" y="2.89" width=".11" height="34.07"/><rect class="cls-92" x="17.42" y="2.89" width=".11" height="34.07"/><rect class="cls-21" x="17.52" y="2.89" width=".11" height="34.07"/><rect class="cls-109" x="17.63" y="2.89" width=".11" height="34.07"/><rect class="cls-7" x="17.73" y="2.89" width=".11" height="34.07"/><rect class="cls-7" x="17.84" y="2.89" width=".11" height="34.07"/><rect class="cls-55" x="17.94" y="2.89" width=".11" height="34.07"/><rect class="cls-108" x="18.05" y="2.89" width=".11" height="34.07"/><rect class="cls-108" x="18.16" y="2.89" width=".11" height="34.07"/><rect class="cls-101" x="18.26" y="2.89" width=".11" height="34.07"/><rect class="cls-107" x="18.37" y="2.89" width=".11" height="34.07"/><rect class="cls-40" x="18.47" y="2.89" width=".11" height="34.07"/><rect class="cls-95" x="18.58" y="2.89" width=".11" height="34.07"/><rect class="cls-95" x="18.68" y="2.89" width=".11" height="34.07"/><rect class="cls-44" x="18.79" y="2.89" width=".11" height="34.07"/><rect class="cls-44" x="18.89" y="2.89" width=".11" height="34.07"/><rect class="cls-89" x="19" y="2.89" width=".11" height="34.07"/><rect class="cls-89" x="19.11" y="2.89" width=".11" height="34.07"/><rect class="cls-118" x="19.21" y="2.89" width=".11" height="34.07"/><rect class="cls-86" x="19.32" y="2.89" width=".11" height="34.07"/><rect class="cls-63" x="19.42" y="2.89" width=".11" height="34.07"/><rect class="cls-119" x="19.53" y="2.89" width=".11" height="34.07"/><rect class="cls-17" x="19.63" y="2.89" width=".11" height="34.07"/><rect class="cls-82" x="19.74" y="2.89" width=".11" height="34.07"/><rect class="cls-82" x="19.85" y="2.89" width=".11" height="34.07"/><rect class="cls-117" x="19.95" y="2.89" width=".11" height="34.07"/><rect class="cls-117" x="20.06" y="2.89" width=".11" height="34.07"/><rect class="cls-125" x="20.16" y="2.89" width=".11" height="34.07"/><rect class="cls-116" x="20.27" y="2.89" width=".11" height="34.07"/><rect class="cls-22" x="20.37" y="2.89" width=".11" height="34.07"/><rect class="cls-22" x="20.48" y="2.89" width=".11" height="34.07"/><rect class="cls-96" x="20.58" y="2.89" width=".11" height="34.07"/><rect class="cls-96" x="20.69" y="2.89" width=".11" height="34.07"/><rect class="cls-98" x="20.8" y="2.89" width=".11" height="34.07"/><rect class="cls-11" x="20.9" y="2.89" width=".11" height="34.07"/><rect class="cls-62" x="21.01" y="2.89" width=".11" height="34.07"/><rect class="cls-62" x="21.11" y="2.89" width=".11" height="34.07"/><rect class="cls-57" x="21.22" y="2.89" width=".11" height="34.07"/><rect class="cls-103" x="21.32" y="2.89" width=".11" height="34.07"/><rect class="cls-105" x="21.43" y="2.89" width=".11" height="34.07"/><rect class="cls-41" x="21.54" y="2.89" width=".11" height="34.07"/><rect class="cls-124" x="21.64" y="2.89" width=".11" height="34.07"/><rect class="cls-15" x="21.75" y="2.89" width=".11" height="34.07"/><rect class="cls-15" x="21.85" y="2.89" width=".11" height="34.07"/><rect class="cls-3" x="21.96" y="2.89" width=".11" height="34.07"/><rect class="cls-102" x="22.06" y="2.89" width=".11" height="34.07"/><rect class="cls-68" x="22.17" y="2.89" width=".11" height="34.07"/><rect class="cls-39" x="22.27" y="2.89" width=".11" height="34.07"/><rect class="cls-18" x="22.38" y="2.89" width=".11" height="34.07"/><rect class="cls-23" x="22.49" y="2.89" width=".11" height="34.07"/><rect class="cls-23" x="22.59" y="2.89" width=".11" height="34.07"/><rect class="cls-76" x="22.7" y="2.89" width=".11" height="34.07"/><rect class="cls-47" x="22.8" y="2.89" width=".11" height="34.07"/><rect class="cls-72" x="22.91" y="2.89" width=".11" height="34.07"/><rect class="cls-36" x="23.01" y="2.89" width=".11" height="34.07"/><rect class="cls-130" x="23.12" y="2.89" width=".11" height="34.07"/></g><g class="cls-64"><rect class="cls-93" x="23.78" y="2.87" width=".05" height="10.35"/><rect class="cls-93" x="23.83" y="2.87" width=".06" height="10.35"/><rect class="cls-29" x="23.89" y="2.87" width=".06" height="10.35"/><rect class="cls-94" x="23.95" y="2.87" width=".06" height="10.35"/><rect class="cls-12" x="24.01" y="2.87" width=".06" height="10.35"/><rect class="cls-79" x="24.07" y="2.87" width=".06" height="10.35"/><rect class="cls-79" x="24.13" y="2.87" width=".06" height="10.35"/><rect class="cls-132" x="24.18" y="2.87" width=".06" height="10.35"/><rect class="cls-69" x="24.24" y="2.87" width=".06" height="10.35"/><rect class="cls-69" x="24.3" y="2.87" width=".06" height="10.35"/><rect class="cls-59" x="24.36" y="2.87" width=".06" height="10.35"/><rect class="cls-59" x="24.42" y="2.87" width=".06" height="10.35"/><rect class="cls-128" x="24.48" y="2.87" width=".06" height="10.35"/><rect class="cls-58" x="24.53" y="2.87" width=".06" height="10.35"/><rect class="cls-58" x="24.59" y="2.87" width=".06" height="10.35"/><rect class="cls-58" x="24.65" y="2.87" width=".06" height="10.35"/><rect class="cls-38" x="24.71" y="2.87" width=".06" height="10.35"/><rect class="cls-38" x="24.77" y="2.87" width=".06" height="10.35"/><rect class="cls-71" x="24.82" y="2.87" width=".06" height="10.35"/><rect class="cls-71" x="24.88" y="2.87" width=".06" height="10.35"/><rect class="cls-137" x="24.94" y="2.87" width=".06" height="10.35"/><rect class="cls-106" x="25" y="2.87" width=".06" height="10.35"/><rect class="cls-106" x="25.06" y="2.87" width=".06" height="10.35"/><rect class="cls-91" x="25.12" y="2.87" width=".06" height="10.35"/><rect class="cls-28" x="25.17" y="2.87" width=".06" height="10.35"/><rect class="cls-97" x="25.23" y="2.87" width=".06" height="10.35"/><rect class="cls-97" x="25.29" y="2.87" width=".06" height="10.35"/><rect class="cls-88" x="25.35" y="2.87" width=".06" height="10.35"/><rect class="cls-20" x="25.41" y="2.87" width=".06" height="10.35"/><rect class="cls-20" x="25.46" y="2.87" width=".06" height="10.35"/><rect class="cls-81" x="25.52" y="2.87" width=".06" height="10.35"/><rect class="cls-81" x="25.58" y="2.87" width=".06" height="10.35"/><rect class="cls-81" x="25.64" y="2.87" width=".06" height="10.35"/><rect class="cls-61" x="25.7" y="2.87" width=".06" height="10.35"/><rect class="cls-61" x="25.76" y="2.87" width=".06" height="10.35"/><rect class="cls-56" x="25.81" y="2.87" width=".06" height="10.35"/><rect class="cls-56" x="25.87" y="2.87" width=".06" height="10.35"/><rect class="cls-127" x="25.93" y="2.87" width=".06" height="10.35"/><rect class="cls-43" x="25.99" y="2.87" width=".06" height="10.35"/><rect class="cls-43" x="26.05" y="2.87" width=".06" height="10.35"/><rect class="cls-43" x="26.11" y="2.87" width=".06" height="10.35"/><rect class="cls-31" x="26.16" y="2.87" width=".06" height="10.35"/><rect class="cls-53" x="26.22" y="2.87" width=".06" height="10.35"/><rect class="cls-53" x="26.28" y="2.87" width=".06" height="10.35"/><rect class="cls-54" x="26.34" y="2.87" width=".06" height="10.35"/><rect class="cls-121" x="26.4" y="2.87" width=".06" height="10.35"/><rect class="cls-121" x="26.45" y="2.87" width=".06" height="10.35"/><rect class="cls-52" x="26.51" y="2.87" width=".06" height="10.35"/><rect class="cls-52" x="26.57" y="2.87" width=".06" height="10.35"/><rect class="cls-104" x="26.63" y="2.87" width=".06" height="10.35"/><rect class="cls-129" x="26.69" y="2.87" width=".06" height="10.35"/><rect class="cls-129" x="26.75" y="2.87" width=".06" height="10.35"/><rect class="cls-115" x="26.8" y="2.87" width=".06" height="10.35"/><rect class="cls-115" x="26.86" y="2.87" width=".06" height="10.35"/><rect class="cls-115" x="26.92" y="2.87" width=".06" height="10.35"/><rect class="cls-19" x="26.98" y="2.87" width=".06" height="10.35"/><rect class="cls-78" x="27.04" y="2.87" width=".06" height="10.35"/><rect class="cls-51" x="27.09" y="2.87" width=".06" height="10.35"/><rect class="cls-46" x="27.15" y="2.87" width=".06" height="10.35"/><rect class="cls-46" x="27.21" y="2.87" width=".06" height="10.35"/><rect class="cls-113" x="27.27" y="2.87" width=".06" height="10.35"/><rect class="cls-8" x="27.33" y="2.87" width=".06" height="10.35"/><rect class="cls-8" x="27.39" y="2.87" width=".06" height="10.35"/><rect class="cls-24" x="27.44" y="2.87" width=".06" height="10.35"/><rect class="cls-126" x="27.5" y="2.87" width=".06" height="10.35"/><rect class="cls-126" x="27.56" y="2.87" width=".06" height="10.35"/><rect class="cls-9" x="27.62" y="2.87" width=".06" height="10.35"/><rect class="cls-84" x="27.68" y="2.87" width=".06" height="10.35"/><rect class="cls-84" x="27.74" y="2.87" width=".06" height="10.35"/><rect class="cls-13" x="27.79" y="2.87" width=".06" height="10.35"/><rect class="cls-83" x="27.85" y="2.87" width=".06" height="10.35"/><rect class="cls-83" x="27.91" y="2.87" width=".06" height="10.35"/><rect class="cls-136" x="27.97" y="2.87" width=".06" height="10.35"/><rect class="cls-67" x="28.03" y="2.87" width=".06" height="10.35"/><rect class="cls-67" x="28.08" y="2.87" width=".06" height="10.35"/><rect class="cls-133" x="28.14" y="2.87" width=".06" height="10.35"/><rect class="cls-133" x="28.2" y="2.87" width=".06" height="10.35"/><rect class="cls-73" x="28.26" y="2.87" width=".06" height="10.35"/><rect class="cls-27" x="28.32" y="2.87" width=".06" height="10.35"/><rect class="cls-27" x="28.38" y="2.87" width=".06" height="10.35"/><rect class="cls-25" x="28.43" y="2.87" width=".06" height="10.35"/><rect class="cls-100" x="28.49" y="2.87" width=".06" height="10.35"/><rect class="cls-100" x="28.55" y="2.87" width=".06" height="10.35"/><rect class="cls-32" x="28.61" y="2.87" width=".06" height="10.35"/><rect class="cls-45" x="28.67" y="2.87" width=".06" height="10.35"/><rect class="cls-45" x="28.72" y="2.87" width=".06" height="10.35"/><rect class="cls-42" x="28.78" y="2.87" width=".06" height="10.35"/><rect class="cls-70" x="28.84" y="2.87" width=".06" height="10.35"/><rect class="cls-135" x="28.9" y="2.87" width=".06" height="10.35"/><rect class="cls-135" x="28.96" y="2.87" width=".06" height="10.35"/><rect class="cls-85" x="29.02" y="2.87" width=".06" height="10.35"/><rect class="cls-134" x="29.07" y="2.87" width=".06" height="10.35"/><rect class="cls-87" x="29.13" y="2.87" width=".06" height="10.35"/><rect class="cls-5" x="29.19" y="2.87" width=".06" height="10.35"/><rect class="cls-111" x="29.25" y="2.87" width=".06" height="10.35"/><rect class="cls-111" x="29.31" y="2.87" width=".06" height="10.35"/><rect class="cls-120" x="29.37" y="2.87" width=".06" height="10.35"/><rect class="cls-75" x="29.42" y="2.87" width=".06" height="10.35"/><rect class="cls-75" x="29.48" y="2.87" width=".06" height="10.35"/><rect class="cls-14" x="29.54" y="2.87" width=".06" height="10.35"/><rect class="cls-14" x="29.6" y="2.87" width=".06" height="10.35"/><rect class="cls-14" x="29.66" y="2.87" width=".06" height="10.35"/><rect class="cls-16" x="29.71" y="2.87" width=".06" height="10.35"/><rect class="cls-16" x="29.77" y="2.87" width=".06" height="10.35"/><rect class="cls-16" x="29.83" y="2.87" width=".06" height="10.35"/><rect class="cls-122" x="29.89" y="2.87" width=".06" height="10.35"/><rect class="cls-60" x="29.95" y="2.87" width=".06" height="10.35"/><rect class="cls-110" x="30.01" y="2.87" width=".06" height="10.35"/><rect class="cls-48" x="30.06" y="2.87" width=".06" height="10.35"/><rect class="cls-48" x="30.12" y="2.87" width=".06" height="10.35"/><rect class="cls-112" x="30.18" y="2.87" width=".06" height="10.35"/><rect class="cls-33" x="30.24" y="2.87" width=".06" height="10.35"/><rect class="cls-33" x="30.3" y="2.87" width=".06" height="10.35"/><rect class="cls-6" x="30.35" y="2.87" width=".06" height="10.35"/><rect class="cls-34" x="30.41" y="2.87" width=".06" height="10.35"/><rect class="cls-37" x="30.47" y="2.87" width=".06" height="10.35"/><rect class="cls-37" x="30.53" y="2.87" width=".06" height="10.35"/><rect class="cls-26" x="30.59" y="2.87" width=".06" height="10.35"/><rect class="cls-50" x="30.65" y="2.87" width=".06" height="10.35"/><rect class="cls-50" x="30.7" y="2.87" width=".06" height="10.35"/><rect class="cls-74" x="30.76" y="2.87" width=".06" height="10.35"/><rect class="cls-74" x="30.82" y="2.87" width=".06" height="10.35"/><rect class="cls-74" x="30.88" y="2.87" width=".06" height="10.35"/><rect class="cls-114" x="30.94" y="2.87" width=".06" height="10.35"/><rect class="cls-114" x="31" y="2.87" width=".06" height="10.35"/><rect class="cls-49" x="31.05" y="2.87" width=".06" height="10.35"/><rect class="cls-99" x="31.11" y="2.87" width=".06" height="10.35"/><rect class="cls-99" x="31.17" y="2.87" width=".06" height="10.35"/><rect class="cls-35" x="31.23" y="2.87" width=".06" height="10.35"/><rect class="cls-4" x="31.29" y="2.87" width=".06" height="10.35"/><rect class="cls-90" x="31.34" y="2.87" width=".06" height="10.35"/><rect class="cls-90" x="31.4" y="2.87" width=".06" height="10.35"/><rect class="cls-90" x="31.46" y="2.87" width=".06" height="10.35"/><rect class="cls-10" x="31.52" y="2.87" width=".06" height="10.35"/><rect class="cls-10" x="31.58" y="2.87" width=".06" height="10.35"/><rect class="cls-80" x="31.64" y="2.87" width=".06" height="10.35"/><rect class="cls-92" x="31.69" y="2.87" width=".06" height="10.35"/><rect class="cls-92" x="31.75" y="2.87" width=".06" height="10.35"/><rect class="cls-21" x="31.81" y="2.87" width=".06" height="10.35"/><rect class="cls-109" x="31.87" y="2.87" width=".06" height="10.35"/><rect class="cls-7" x="31.93" y="2.87" width=".06" height="10.35"/><rect class="cls-7" x="31.98" y="2.87" width=".06" height="10.35"/><rect class="cls-55" x="32.04" y="2.87" width=".06" height="10.35"/><rect class="cls-108" x="32.1" y="2.87" width=".06" height="10.35"/><rect class="cls-108" x="32.16" y="2.87" width=".06" height="10.35"/><rect class="cls-101" x="32.22" y="2.87" width=".06" height="10.35"/><rect class="cls-107" x="32.28" y="2.87" width=".06" height="10.35"/><rect class="cls-40" x="32.33" y="2.87" width=".06" height="10.35"/><rect class="cls-95" x="32.39" y="2.87" width=".06" height="10.35"/><rect class="cls-95" x="32.45" y="2.87" width=".06" height="10.35"/><rect class="cls-44" x="32.51" y="2.87" width=".06" height="10.35"/><rect class="cls-44" x="32.57" y="2.87" width=".06" height="10.35"/><rect class="cls-89" x="32.63" y="2.87" width=".06" height="10.35"/><rect class="cls-89" x="32.68" y="2.87" width=".06" height="10.35"/><rect class="cls-118" x="32.74" y="2.87" width=".06" height="10.35"/><rect class="cls-86" x="32.8" y="2.87" width=".06" height="10.35"/><rect class="cls-63" x="32.86" y="2.87" width=".06" height="10.35"/><rect class="cls-119" x="32.92" y="2.87" width=".06" height="10.35"/><rect class="cls-17" x="32.97" y="2.87" width=".06" height="10.35"/><rect class="cls-82" x="33.03" y="2.87" width=".06" height="10.35"/><rect class="cls-82" x="33.09" y="2.87" width=".06" height="10.35"/><rect class="cls-117" x="33.15" y="2.87" width=".06" height="10.35"/><rect class="cls-117" x="33.21" y="2.87" width=".06" height="10.35"/><rect class="cls-125" x="33.27" y="2.87" width=".06" height="10.35"/><rect class="cls-116" x="33.32" y="2.87" width=".06" height="10.35"/><rect class="cls-22" x="33.38" y="2.87" width=".06" height="10.35"/><rect class="cls-22" x="33.44" y="2.87" width=".06" height="10.35"/><rect class="cls-96" x="33.5" y="2.87" width=".06" height="10.35"/><rect class="cls-96" x="33.56" y="2.87" width=".06" height="10.35"/><rect class="cls-98" x="33.61" y="2.87" width=".06" height="10.35"/><rect class="cls-11" x="33.67" y="2.87" width=".06" height="10.35"/><rect class="cls-62" x="33.73" y="2.87" width=".06" height="10.35"/><rect class="cls-62" x="33.79" y="2.87" width=".06" height="10.35"/><rect class="cls-57" x="33.85" y="2.87" width=".06" height="10.35"/><rect class="cls-103" x="33.91" y="2.87" width=".06" height="10.35"/><rect class="cls-105" x="33.96" y="2.87" width=".06" height="10.35"/><rect class="cls-41" x="34.02" y="2.87" width=".06" height="10.35"/><rect class="cls-124" x="34.08" y="2.87" width=".06" height="10.35"/><rect class="cls-15" x="34.14" y="2.87" width=".06" height="10.35"/><rect class="cls-15" x="34.2" y="2.87" width=".06" height="10.35"/><rect class="cls-3" x="34.26" y="2.87" width=".06" height="10.35"/><rect class="cls-102" x="34.31" y="2.87" width=".06" height="10.35"/><rect class="cls-68" x="34.37" y="2.87" width=".06" height="10.35"/><rect class="cls-39" x="34.43" y="2.87" width=".06" height="10.35"/><rect class="cls-18" x="34.49" y="2.87" width=".06" height="10.35"/><rect class="cls-23" x="34.55" y="2.87" width=".06" height="10.35"/><rect class="cls-23" x="34.6" y="2.87" width=".06" height="10.35"/><rect class="cls-76" x="34.66" y="2.87" width=".06" height="10.35"/><rect class="cls-47" x="34.72" y="2.87" width=".06" height="10.35"/><rect class="cls-72" x="34.78" y="2.87" width=".06" height="10.35"/><rect class="cls-36" x="34.84" y="2.87" width=".06" height="10.35"/><rect class="cls-130" x="34.9" y="2.87" width=".06" height="10.35"/></g><path class="cls-123" d="M25.74,6.16c.43.09.87.18,1.28.37-2.13-.45-4.03.46-4.5,2.68-1.01,4.78,12.04,6.79,10.37,14.66-1.14,5.41-6.96,5.95-11.45,5,2.32.49,5.28-.14,5.84-2.8,1.31-6.18-12.31-6.94-10.44-15.78.81-3.82,5.66-4.81,8.9-4.12Z"/><path class="cls-30" d="M40.98,2.66h1.58c1.04,0,1.83.8,1.83,2.01,0,1.29-.81,2.06-1.83,2.06h-1.58V2.66ZM42.56,6.67c1.02-.02,1.22-1.1,1.22-2,0-.85-.16-1.93-1.22-1.96l-1.02-.02v3.99l1.02-.02Z"/><path class="cls-30" d="M44.95,4.5h.56v.51c.07-.27.27-.58.72-.58.22,0,.34.13.34.28s-.13.28-.28.28-.28-.13-.28-.28c0-.09.06-.18.12-.22-.4,0-.62.5-.62.8v1.44h-.56v-2.23Z"/><path class="cls-30" d="M46.53,6.53c0-.15.11-.26.26-.26s.26.11.26.26-.11.26-.26.26-.26-.11-.26-.26Z"/><path d="M42.87,12.47h-1.04c-.12-.27-.29-.47-.5-.59s-.41-.18-.6-.18h-.1v-.13h2.81v.13h-.11c-.16,0-.3.07-.42.2-.12.13-.14.32-.04.57ZM45.34,20.49l-3.87-8.84h1.06l3.06,7.65-.25,1.19ZM45.34,20.49l-.11-.87,3.32-8h.75l-3.38,7.59c-.09.21-.17.39-.23.54-.06.15-.12.3-.16.44s-.07.25-.07.31h-.11ZM48.2,12.47c.09-.25.07-.44-.05-.57-.12-.13-.27-.2-.42-.2h-.11v-.13h2.51v.13h-.11c-.18,0-.38.06-.59.18-.21.12-.38.32-.51.61h-.71Z"/><path d="M51.75,12.49h-.04c0-.22-.09-.4-.24-.56-.15-.15-.34-.23-.56-.23h-.16v-.13h1v.91ZM51.75,19.4v.91h-1v-.12h.16c.22,0,.4-.08.56-.23.15-.15.23-.34.24-.56h.04ZM52.52,11.57v8.74h-.81v-8.74h.81ZM52.48,12.49v-.91h1v.13h-.16c-.22,0-.4.08-.56.23-.15.15-.24.34-.24.56h-.04ZM52.48,19.4h.04c0,.22.09.4.24.56.15.15.34.23.56.23h.16v.12h-1v-.91Z"/><path d="M55.97,12.49h-.04c0-.22-.08-.4-.24-.56s-.35-.23-.56-.23h-.15v-.13s.99,0,.99,0v.91ZM55.97,19.4v.91h-1v-.12h.16c.22,0,.4-.08.56-.23.15-.15.23-.34.24-.56h.04ZM56.74,11.57v8.74h-.81v-8.74h.81ZM59.2,11.57c.89,0,1.67.18,2.34.54s1.19.87,1.57,1.53c.38.66.57,1.42.57,2.3s-.19,1.64-.57,2.29-.9,1.16-1.57,1.53c-.67.37-1.45.55-2.34.55h-2.67v-.37h2.67c.72,0,1.34-.17,1.87-.5.53-.33.94-.8,1.24-1.4.3-.6.44-1.3.44-2.1s-.15-1.5-.44-2.1-.71-1.07-1.24-1.4-1.15-.5-1.86-.5h-2.81v-.37h2.81Z"/><path d="M66.21,12.47l-1.05-.04c-.12-.19-.29-.36-.51-.51s-.47-.22-.74-.22h-.17v-.13h3.07v.13h-.16c-.18,0-.32.09-.42.26-.1.17-.1.34-.02.52ZM65.73,11.59l2.45,4.56-.54.44-2.98-4.99h1.07ZM67.57,19.4v.91h-.99v-.12h.16c.22,0,.4-.08.56-.23.15-.15.23-.34.24-.56h.02ZM68.35,16.29v4.02h-.81v-4.02h.81ZM70.58,11.59h.76l-3.07,4.97-.45-.14,2.76-4.83ZM68.32,19.4h.04c0,.22.08.4.24.56s.35.23.56.23h.15v.12h-.99v-.91ZM70.07,12.47c.08-.12.1-.24.06-.36-.03-.12-.1-.22-.19-.3s-.2-.12-.31-.12h-.15v-.13h2.77v.13h-.17c-.26,0-.5.08-.72.22s-.4.32-.54.51l-.75.04Z"/><path d="M72.66,19.4c-.06.17-.07.31-.03.42.04.12.11.21.21.27.1.06.19.09.29.09h.11v.12h-2.51v-.12h.11c.19,0,.39-.06.59-.18s.37-.32.51-.61h.71ZM75.35,11.4l.11.87-3.13,8h-.75l3.2-7.59c.09-.21.17-.39.23-.54s.12-.3.16-.44c.05-.14.07-.25.07-.31h.11ZM77.11,16.91v.37h-3.91v-.37h3.91ZM75.35,11.4l3.7,8.84h-1.06l-2.88-7.65.25-1.19ZM77.67,19.4h1.02c.13.28.29.48.5.61s.41.18.6.18h.1v.12h-2.81v-.12h.11c.16,0,.3-.07.42-.21s.14-.33.05-.58Z"/><path d="M86.01,11.4c.13,0,.28,0,.43.03.15.02.3.04.45.07.15.03.28.06.4.09.12.03.21.06.28.09v1.39h-.11c0-.4-.14-.71-.41-.94-.27-.23-.61-.34-1-.34-.46,0-.83.14-1.11.43-.28.29-.42.62-.42,1.01,0,.16.04.34.11.56.07.21.2.41.39.59l2.46,2.27c.25.23.42.48.5.75.08.27.12.52.12.77,0,.69-.21,1.25-.63,1.69-.42.43-.99.65-1.7.65-.2,0-.43-.02-.71-.06s-.53-.11-.79-.22c-.25-.1-.46-.24-.63-.41-.02-.13-.04-.3-.04-.5s.02-.41.05-.63c.03-.22.08-.42.14-.61h.11c-.04.42.01.8.16,1.11.15.32.37.56.66.72.29.16.61.24.98.22.46-.03.85-.19,1.18-.48.33-.3.49-.69.49-1.19,0-.24-.04-.46-.12-.66-.08-.2-.2-.36-.36-.51l-2.4-2.22c-.25-.23-.42-.49-.52-.77-.1-.28-.15-.54-.15-.78,0-.35.08-.69.25-1.01.17-.32.41-.59.74-.79s.73-.31,1.2-.31ZM87.57,11.52v.26h-.95v-.26h.95Z"/><path d="M90.61,19.4c-.06.17-.07.31-.03.42.04.12.11.21.21.27.1.06.19.09.29.09h.11v.12h-2.51v-.12h.11c.19,0,.39-.06.59-.18s.37-.32.51-.61h.71ZM93.29,11.4l.11.87-3.13,8h-.75l3.2-7.59c.09-.21.17-.39.23-.54s.12-.3.16-.44c.05-.14.07-.25.07-.31h.11ZM95.05,16.91v.37h-3.91v-.37h3.91ZM93.29,11.4l3.7,8.84h-1.06l-2.88-7.65.25-1.19ZM95.61,19.4h1.02c.13.28.29.48.5.61s.41.18.6.18h.1v.12h-2.81v-.12h.11c.16,0,.3-.07.42-.21s.14-.33.05-.58Z"/><path d="M106.12,16.82v2.06c-.19.25-.45.5-.77.75-.32.25-.72.46-1.19.62s-1.02.24-1.65.24c-.88,0-1.66-.2-2.34-.58-.67-.38-1.2-.91-1.58-1.59-.38-.68-.57-1.47-.57-2.38s.19-1.7.57-2.39c.38-.68.91-1.21,1.58-1.59s1.45-.57,2.34-.57c.46,0,.87.04,1.24.11.37.08.7.18.99.31.29.13.56.27.81.43l.25,1.76h-.11c-.12-.48-.33-.89-.62-1.22-.29-.33-.65-.58-1.08-.76s-.92-.26-1.47-.26c-.7,0-1.32.17-1.85.52-.53.35-.95.84-1.25,1.46-.3.62-.45,1.35-.45,2.19s.15,1.56.45,2.19c.3.62.72,1.11,1.25,1.46.53.35,1.15.52,1.85.53.37,0,.72-.04,1.06-.13.34-.09.66-.21.96-.37.3-.16.57-.36.8-.58v-2.21c.01-.37-.2-.56-.62-.56h-.2v-.13h2.45v.13h-.19c-.43,0-.64.19-.62.56Z"/><path d="M108.96,19.4c-.06.17-.07.31-.03.42.04.12.11.21.21.27.1.06.19.09.29.09h.11v.12h-2.51v-.12h.11c.19,0,.39-.06.59-.18s.37-.32.51-.61h.71ZM111.65,11.4l.11.87-3.13,8h-.75l3.2-7.59c.09-.21.17-.39.23-.54s.12-.3.16-.44c.05-.14.07-.25.07-.31h.11ZM113.41,16.91v.37h-3.91v-.37h3.91ZM111.65,11.4l3.7,8.84h-1.06l-2.88-7.65.25-1.19ZM113.97,19.4h1.02c.13.28.29.48.5.61s.41.18.6.18h.1v.12h-2.81v-.12h.11c.16,0,.3-.07.42-.21s.14-.33.05-.58Z"/><path d="M117.81,12.49h-.04c0-.22-.09-.4-.24-.56-.15-.15-.34-.23-.56-.23h-.16v-.13h1v.91ZM117.81,19.4v.91h-1v-.12h.16c.22,0,.4-.08.56-.23.15-.15.23-.34.24-.56h.04ZM118.58,11.57v8.74h-.81v-8.74h.81ZM120.18,11.57c.37,0,.71.05,1.02.16.3.11.56.26.77.47.21.2.37.45.48.74.11.29.17.61.17.98,0,.4-.09.78-.28,1.15-.19.37-.44.66-.76.89-.32.23-.68.34-1.08.34.14.06.3.18.46.36.17.18.31.35.44.52.22.32.42.6.59.84.17.23.34.46.52.69s.32.4.45.54c.17.18.33.35.5.49.17.14.35.25.54.34.2.08.41.13.66.13v.12h-.69c-.38,0-.71-.06-.99-.17-.28-.12-.51-.26-.71-.43-.19-.17-.35-.33-.49-.49-.02-.03-.09-.13-.21-.29-.11-.16-.25-.35-.4-.57-.15-.22-.31-.44-.46-.66-.15-.22-.28-.4-.39-.56-.11-.15-.17-.24-.19-.27-.16-.21-.33-.4-.52-.57-.19-.18-.4-.26-.62-.26v-.12c.26,0,.48,0,.66,0,.22,0,.45-.04.71-.1.26-.06.5-.18.72-.36.22-.18.4-.46.51-.84.03-.09.05-.21.06-.34s.02-.27.01-.41c0-.57-.15-1.02-.43-1.35-.28-.34-.65-.52-1.12-.54-.23-.02-.47-.02-.72-.02-.25,0-.54,0-.87,0,0,0-.01-.04-.03-.11-.02-.06-.05-.16-.09-.28h1.76ZM118.54,19.4h.04c0,.22.08.4.24.56s.35.23.56.23h.15v.12h-.99v-.91Z"/><path d="M125.21,10.86c.06-.12.15-.21.29-.25.13-.04.27-.04.42.02.15.05.26.17.33.36.11.26.15.5.12.74-.02.23-.1.44-.22.63-.12.19-.27.34-.46.44-.18.11-.38.17-.6.17l-.03-.11c.27-.09.44-.22.52-.37.08-.16.11-.32.07-.47-.03-.16-.09-.28-.16-.37-.05-.07-.11-.14-.17-.21s-.12-.16-.15-.26c-.03-.1-.03-.2.02-.31Z"/><path d="M130.05,11.4c.13,0,.28,0,.43.03.15.02.3.04.45.07.15.03.28.06.4.09.12.03.21.06.28.09v1.39h-.11c0-.4-.14-.71-.41-.94-.27-.23-.61-.34-1-.34-.46,0-.83.14-1.11.43-.28.29-.42.62-.42,1.01,0,.16.04.34.11.56.07.21.2.41.39.59l2.46,2.27c.25.23.42.48.5.75.08.27.12.52.12.77,0,.69-.21,1.25-.63,1.69-.42.43-.99.65-1.7.65-.2,0-.43-.02-.71-.06s-.53-.11-.79-.22c-.25-.1-.46-.24-.63-.41-.02-.13-.04-.3-.04-.5s.02-.41.05-.63c.03-.22.08-.42.14-.61h.11c-.04.42.01.8.16,1.11.15.32.37.56.66.72.29.16.61.24.98.22.46-.03.85-.19,1.18-.48.33-.3.49-.69.49-1.19,0-.24-.04-.46-.12-.66-.08-.2-.2-.36-.36-.51l-2.4-2.22c-.25-.23-.42-.49-.52-.77-.1-.28-.15-.54-.15-.78,0-.35.08-.69.25-1.01.17-.32.41-.59.74-.79s.73-.31,1.2-.31ZM131.62,11.52v.26h-.95v-.26h.95Z"/><path class="cls-2" d="M71.43,25.05h-.03c0-.14-.06-.27-.16-.37-.1-.1-.23-.15-.37-.15h-.11s0-.08,0-.08h.66s0,.6,0,.6ZM71.46,29.64v.6s-.66,0-.66,0v-.08s.11,0,.11,0c.14,0,.27-.05.37-.16.1-.1.15-.23.16-.37h.02ZM71.94,24.45l.03,5.79h-.54s-.03-5.79-.03-5.79h.54ZM75.41,27.23v.25s-3.54.02-3.54.02v-.25s3.54-.02,3.54-.02ZM71.92,25.05v-.6s.66,0,.66,0v.08s-.04,0-.11,0c-.14,0-.27.05-.37.16-.1.1-.15.23-.16.37h-.02ZM71.94,29.64h.02c0,.14.06.27.16.37.1.1.23.15.37.15.07,0,.1,0,.11,0v.08s-.66,0-.66,0v-.6ZM75.35,25.03h-.03c0-.14-.05-.27-.16-.37-.11-.1-.23-.15-.37-.15-.07,0-.1,0-.11,0v-.08s.66,0,.66,0v.6ZM75.38,29.62v.6s-.66,0-.66,0v-.08s.04,0,.11,0c.14,0,.27-.05.37-.16.1-.1.16-.23.16-.37h.02ZM75.86,24.42l.03,5.79h-.54s-.03-5.79-.03-5.79h.54ZM75.84,25.03v-.6s.66,0,.66,0v.08s-.11,0-.11,0c-.14,0-.27.05-.37.16-.1.1-.15.23-.16.37h-.02ZM75.87,29.61h.02c0,.14.06.27.16.37.1.1.23.15.37.15h.11s0,.08,0,.08h-.66s0-.6,0-.6Z"/><path class="cls-2" d="M80.04,25.11c.39,0,.75.06,1.09.18s.64.3.9.53c.26.23.46.5.61.82.14.32.22.67.22,1.05,0,.39-.07.74-.21,1.06-.14.32-.34.59-.6.83-.26.23-.55.41-.89.54-.34.13-.7.19-1.09.19-.39,0-.75-.06-1.09-.18-.34-.12-.63-.3-.89-.53-.26-.23-.46-.5-.6-.82s-.22-.67-.22-1.05.07-.74.21-1.06c.14-.32.34-.59.6-.83.26-.23.55-.41.89-.54s.7-.19,1.08-.19ZM80.06,30.06c.41,0,.78-.1,1.11-.3.33-.2.59-.48.78-.83.19-.35.29-.76.28-1.23,0-.47-.1-.88-.3-1.23-.2-.35-.46-.62-.79-.82s-.7-.29-1.11-.29c-.4,0-.77.1-1.1.3-.33.2-.59.48-.78.83-.19.35-.29.76-.28,1.23,0,.46.1.87.3,1.22.19.35.46.63.79.82.33.2.7.29,1.1.29Z"/><path class="cls-2" d="M84.11,29.62v.55s-.86,0-.86,0v-.08s.12,0,.12,0c.14,0,.27-.04.38-.13.11-.08.17-.2.18-.35h.17ZM84.56,25.09h.08s.17.49.17.49l-.49,4.6h-.46s.69-5.08.69-5.08ZM84.36,29.74c0,.08.01.16.06.24.04.07.13.11.25.12h.12s0,.07,0,.07h-.47s0-.43,0-.43h.05ZM84.64,25.09l2.28,4.32-.19.87-2.24-4.27.15-.91ZM88.93,25.06l.08.54-1.91,3.83c-.08.19-.14.35-.19.48-.04.13-.08.25-.1.37h-.08s-.12-.52-.12-.52l2.32-4.69ZM89.01,25.06l.77,5.08h-.63s-.56-4.16-.56-4.16l.34-.92h.07ZM89.09,29.71h.06s0,.43,0,.43h-.48s0-.07,0-.07h.12c.13,0,.21-.05.25-.13s.06-.15.04-.23ZM89.53,29.59h.17c.02.15.09.26.2.35.11.08.24.12.37.12h.12s0,.08,0,.08h-.86s0-.55,0-.55Z"/><path class="cls-2" d="M93.58,25.04c.39,0,.75.06,1.09.18s.64.3.9.53c.26.23.46.5.61.82.14.32.22.67.22,1.05,0,.39-.07.74-.21,1.06-.14.32-.34.59-.6.83-.26.23-.55.41-.89.54-.34.13-.7.19-1.09.19-.39,0-.75-.06-1.09-.18-.34-.12-.63-.3-.89-.53-.26-.23-.46-.5-.6-.82s-.22-.67-.22-1.05.07-.74.21-1.06c.14-.32.34-.59.6-.83.26-.23.55-.41.89-.54s.7-.19,1.08-.19ZM93.61,29.98c.41,0,.78-.1,1.11-.3.33-.2.59-.48.78-.83.19-.35.29-.76.28-1.23,0-.47-.1-.88-.3-1.23-.2-.35-.46-.62-.79-.82s-.7-.29-1.11-.29c-.4,0-.77.1-1.1.3-.33.2-.59.48-.78.83-.19.35-.29.76-.28,1.23,0,.46.1.87.3,1.22.19.35.46.63.79.82.33.2.7.29,1.1.29Z"/><path class="cls-2" d="M97.73,25.65h-.02c0-.13-.05-.23-.14-.31-.09-.08-.2-.12-.34-.12h-.12s0-.08,0-.08h.72s-.11.52-.11.52ZM97.76,29.56l.11.53h-.72s0-.08,0-.08h.12c.14,0,.25-.05.34-.13.09-.09.13-.19.14-.32h.02ZM98.24,25.12l.03,4.97h-.53s-.03-4.96-.03-4.96h.53ZM100.46,25.11v.26s-2.23.01-2.23.01v-.26s2.23-.01,2.23-.01ZM100.09,27.47v.25s-1.85.01-1.85.01v-.25s1.85-.01,1.85-.01ZM100.5,29.82l-.02.26h-2.23s0-.24,0-.24h2.24ZM100.95,28.89l-.45,1.19h-1.26s.28-.25.28-.25c.28,0,.5-.04.67-.12.17-.08.3-.19.41-.33.1-.14.19-.3.27-.48h.08ZM100.46,24.98v.22s-.94-.08-.94-.08c.17,0,.35-.02.55-.05.19-.03.32-.06.4-.09ZM100.09,27.02v.47s-.43,0-.43,0v-.02c.12,0,.2-.04.26-.11.05-.07.08-.15.08-.24v-.11s.09,0,.09,0ZM100.1,27.7v.47s-.09,0-.09,0v-.11c0-.09-.03-.17-.08-.24-.06-.07-.14-.1-.26-.1v-.02h.43ZM100.46,25.34v.57s-.09,0-.09,0v-.12c0-.12-.04-.21-.11-.3-.07-.08-.18-.12-.3-.12v-.02h.5Z"/><path class="cls-2" d="M104.38,24.97c.39,0,.75.06,1.09.18.34.12.64.3.9.53.26.23.46.5.6.82.15.32.22.67.22,1.05s-.07.74-.21,1.06-.34.59-.6.83c-.26.23-.55.41-.89.54s-.7.19-1.09.19c-.39,0-.75-.06-1.09-.18s-.63-.3-.89-.53c-.26-.23-.46-.5-.6-.82-.15-.32-.22-.67-.22-1.05s.07-.74.21-1.06c.14-.32.34-.59.6-.83.26-.23.55-.41.89-.54.34-.13.7-.19,1.08-.19ZM104.41,29.92c.41,0,.78-.1,1.11-.3.33-.2.59-.48.78-.83.19-.35.29-.76.28-1.23,0-.47-.1-.88-.3-1.23-.19-.35-.46-.62-.79-.82-.33-.2-.7-.29-1.11-.29-.4,0-.77.1-1.1.3-.33.2-.59.48-.78.83-.19.35-.29.76-.28,1.23,0,.46.1.87.3,1.22.2.35.46.63.79.82.33.2.7.29,1.1.29Z"/><path class="cls-2" d="M108.53,25.59h-.02c0-.13-.06-.23-.15-.31-.09-.08-.2-.12-.34-.12h-.12s0-.08,0-.08h.72s-.1.52-.1.52ZM108.56,29.5l.11.53h-.72s0-.08,0-.08h.12c.13,0,.24-.05.33-.13.09-.09.14-.19.14-.32h.02ZM109.04,25.06l.03,4.97h-.53s-.03-4.96-.03-4.96h.53ZM109.85,25.06c.39,0,.72.05,1,.16.28.11.5.27.66.48.16.21.23.46.24.76,0,.31-.07.58-.21.81-.14.22-.32.4-.56.52-.23.12-.49.18-.77.18s-.56-.07-.85-.21v-.08c.18.03.34.05.49.04s.29-.03.45-.08c.16-.05.31-.14.45-.26s.25-.31.33-.55c.02-.06.04-.13.04-.22,0-.08.01-.16.01-.23,0-.34-.12-.6-.35-.79-.23-.19-.55-.29-.96-.28h-.81c-.03-.08-.06-.16-.09-.24h.92ZM109.04,29.5h.02c0,.12.06.23.15.31.09.09.2.13.34.13,0,0,.04,0,.12,0v.08s-.72,0-.72,0l.1-.53Z"/><path class="cls-2" d="M112.79,29.4c-.06.17-.05.29.03.38s.17.14.27.14h.07s0,.08,0,.08h-1.58s0-.07,0-.07h.07c.12,0,.23-.04.36-.12.12-.08.22-.21.31-.4h.49ZM114.36,24.92l.06.57-1.87,4.5h-.52s1.94-4.21,1.94-4.21c.06-.13.11-.25.15-.34.04-.1.08-.19.11-.29.03-.09.05-.17.06-.22h.07ZM115.36,28.06v.25s-2.19.01-2.19.01v-.25s2.19-.01,2.19-.01ZM114.36,24.92l2.3,5.02h-.65s-1.79-4.28-1.79-4.28l.14-.74ZM115.79,29.39h.63c.08.18.19.32.31.4.12.08.24.12.35.12h.07s0,.08,0,.08h-1.7s0-.07,0-.07h.07c.09,0,.18-.05.26-.14.08-.09.08-.22.02-.39Z"/><path class="cls-2" d="M116.61,24.88c.05.02.13.04.23.06.1.02.22.04.34.05.13.01.25.02.36.02l-.93.09v-.22ZM121.16,24.99v.25s-4.54.03-4.54.03v-.25s4.54-.03,4.54-.03ZM117.12,25.24v.02c-.13,0-.23.05-.3.13-.07.08-.11.18-.11.29v.13s-.09,0-.09,0v-.57s.5,0,.5,0ZM118.66,29.44v.53s-.6,0-.6,0v-.08s.04,0,.1,0c.13,0,.25-.05.34-.13.09-.09.14-.19.15-.32h.02ZM119.16,25.03l.03,4.94h-.54s-.03-4.94-.03-4.94h.54ZM119.16,29.44h.02c0,.12.06.23.15.31.09.09.21.13.34.13h.09s0,.08,0,.08h-.6s0-.53,0-.53ZM121.16,24.85v.22s-.93-.08-.93-.08c.11,0,.23,0,.35-.02.12-.01.24-.03.34-.06.1-.02.18-.04.23-.06ZM121.16,25.22v.57s-.09,0-.09,0v-.13c0-.12-.04-.21-.11-.29-.07-.08-.18-.12-.3-.13v-.02h.5Z"/><path class="cls-2" d="M122.34,25.52h-.02c0-.13-.06-.23-.15-.32-.09-.09-.2-.13-.34-.13h-.1s0-.08,0-.08h.6s0,.53,0,.53ZM122.36,29.42v.53s-.6,0-.6,0v-.08s.1,0,.1,0c.13,0,.24-.05.33-.13.09-.09.14-.19.14-.32h.02ZM122.84,24.98l.03,4.97h-.53s-.03-4.96-.03-4.96h.53ZM125.99,27.36v.25s-3.23.02-3.23.02v-.25s3.23-.02,3.23-.02ZM122.82,25.51v-.53s.6,0,.6,0v.08h-.1c-.13,0-.25.04-.34.13-.09.09-.14.19-.14.32h-.02ZM122.84,29.42h.02c0,.12.05.23.14.31.09.09.21.13.34.13h.1s0,.08,0,.08h-.6s0-.53,0-.53ZM125.92,25.5h-.02c0-.13-.06-.23-.15-.32s-.2-.13-.34-.13h-.1s0-.08,0-.08h.6s0,.53,0,.53ZM125.94,29.4v.53s-.6,0-.6,0v-.08s.1,0,.1,0c.13,0,.24-.05.33-.13.09-.09.14-.19.14-.32h.02ZM126.42,24.96l.03,4.97h-.53s-.03-4.96-.03-4.96h.53ZM126.4,25.49v-.53s.6,0,.6,0v.08h-.1c-.13,0-.24.04-.33.13s-.14.19-.14.32h-.02ZM126.42,29.4h.02c0,.12.06.23.15.31.09.09.2.13.34.13h.1s0,.08,0,.08h-.6s0-.53,0-.53Z"/><path class="cls-2" d="M128.97,25.47l-.7-.02c-.09-.13-.2-.23-.33-.3-.13-.07-.28-.11-.44-.11h-.1s0-.08,0-.08h1.92s0,.07,0,.07h-.1c-.12,0-.21.05-.26.15-.05.1-.05.19,0,.29ZM128.68,24.96l1.55,2.71-.34.29-1.93-3h.72ZM129.85,29.38v.53s-.6,0-.6,0v-.08s.04,0,.1,0c.13,0,.24-.05.33-.13.09-.09.14-.19.14-.32h.02ZM130.35,27.77v2.14s-.53,0-.53,0v-2.14s.53,0,.53,0ZM131.73,24.94h.52s-1.95,3-1.95,3l-.31-.09,1.74-2.91ZM130.34,29.38h.02c0,.12.06.23.15.31.09.09.2.13.34.13h.1s0,.08,0,.08h-.6s0-.53,0-.53ZM131.42,25.47c.06-.11.06-.21,0-.31-.06-.09-.14-.14-.27-.14h-.1s0-.08,0-.08h1.73s0,.07,0,.07h-.1c-.15,0-.3.04-.43.13-.13.09-.24.18-.32.3l-.52.03Z"/><g class="cls-66"><rect class="cls-93" x="42.44" y="27.31" width=".15" height=".33"/><rect class="cls-29" x="42.58" y="27.31" width=".15" height=".33"/><rect class="cls-94" x="42.73" y="27.31" width=".15" height=".33"/><rect class="cls-12" x="42.88" y="27.31" width=".15" height=".33"/><rect class="cls-79" x="43.02" y="27.31" width=".15" height=".33"/><rect class="cls-79" x="43.17" y="27.31" width=".15" height=".33"/><rect class="cls-132" x="43.31" y="27.31" width=".15" height=".33"/><rect class="cls-69" x="43.46" y="27.31" width=".15" height=".33"/><rect class="cls-69" x="43.6" y="27.31" width=".15" height=".33"/><rect class="cls-59" x="43.75" y="27.31" width=".15" height=".33"/><rect class="cls-59" x="43.9" y="27.31" width=".15" height=".33"/><rect class="cls-128" x="44.04" y="27.31" width=".15" height=".33"/><rect class="cls-58" x="44.19" y="27.31" width=".15" height=".33"/><rect class="cls-58" x="44.33" y="27.31" width=".15" height=".33"/><rect class="cls-58" x="44.48" y="27.31" width=".15" height=".33"/><rect class="cls-38" x="44.63" y="27.31" width=".15" height=".33"/><rect class="cls-38" x="44.77" y="27.31" width=".15" height=".33"/><rect class="cls-71" x="44.92" y="27.31" width=".15" height=".33"/><rect class="cls-71" x="45.06" y="27.31" width=".15" height=".33"/><rect class="cls-137" x="45.21" y="27.31" width=".15" height=".33"/><rect class="cls-106" x="45.36" y="27.31" width=".15" height=".33"/><rect class="cls-106" x="45.5" y="27.31" width=".15" height=".33"/><rect class="cls-91" x="45.65" y="27.31" width=".15" height=".33"/><rect class="cls-28" x="45.79" y="27.31" width=".15" height=".33"/><rect class="cls-97" x="45.94" y="27.31" width=".15" height=".33"/><rect class="cls-97" x="46.09" y="27.31" width=".15" height=".33"/><rect class="cls-88" x="46.23" y="27.31" width=".15" height=".33"/><rect class="cls-20" x="46.38" y="27.31" width=".15" height=".33"/><rect class="cls-20" x="46.52" y="27.31" width=".15" height=".33"/><rect class="cls-81" x="46.67" y="27.31" width=".15" height=".33"/><rect class="cls-81" x="46.82" y="27.31" width=".15" height=".33"/><rect class="cls-81" x="46.96" y="27.31" width=".15" height=".33"/><rect class="cls-61" x="47.11" y="27.31" width=".15" height=".33"/><rect class="cls-61" x="47.25" y="27.31" width=".15" height=".33"/><rect class="cls-56" x="47.4" y="27.31" width=".15" height=".33"/><rect class="cls-56" x="47.55" y="27.31" width=".15" height=".33"/><rect class="cls-127" x="47.69" y="27.31" width=".15" height=".33"/><rect class="cls-43" x="47.84" y="27.31" width=".15" height=".33"/><rect class="cls-43" x="47.98" y="27.31" width=".15" height=".33"/><rect class="cls-43" x="48.13" y="27.31" width=".15" height=".33"/><rect class="cls-31" x="48.28" y="27.31" width=".15" height=".33"/><rect class="cls-53" x="48.42" y="27.31" width=".15" height=".33"/><rect class="cls-53" x="48.57" y="27.31" width=".15" height=".33"/><rect class="cls-54" x="48.71" y="27.31" width=".15" height=".33"/><rect class="cls-121" x="48.86" y="27.31" width=".15" height=".33"/><rect class="cls-121" x="49" y="27.31" width=".15" height=".33"/><rect class="cls-52" x="49.15" y="27.31" width=".15" height=".33"/><rect class="cls-52" x="49.3" y="27.31" width=".15" height=".33"/><rect class="cls-104" x="49.44" y="27.31" width=".15" height=".33"/><rect class="cls-129" x="49.59" y="27.31" width=".15" height=".33"/><rect class="cls-129" x="49.73" y="27.31" width=".15" height=".33"/><rect class="cls-115" x="49.88" y="27.31" width=".15" height=".33"/><rect class="cls-115" x="50.03" y="27.31" width=".15" height=".33"/><rect class="cls-115" x="50.17" y="27.31" width=".15" height=".33"/><rect class="cls-19" x="50.32" y="27.31" width=".15" height=".33"/><rect class="cls-78" x="50.46" y="27.31" width=".15" height=".33"/><rect class="cls-51" x="50.61" y="27.31" width=".15" height=".33"/><rect class="cls-46" x="50.76" y="27.31" width=".15" height=".33"/><rect class="cls-46" x="50.9" y="27.31" width=".15" height=".33"/><rect class="cls-113" x="51.05" y="27.31" width=".15" height=".33"/><rect class="cls-8" x="51.19" y="27.31" width=".15" height=".33"/><rect class="cls-8" x="51.34" y="27.31" width=".15" height=".33"/><rect class="cls-24" x="51.49" y="27.31" width=".15" height=".33"/><rect class="cls-126" x="51.63" y="27.31" width=".15" height=".33"/><rect class="cls-126" x="51.78" y="27.31" width=".15" height=".33"/><rect class="cls-9" x="51.92" y="27.31" width=".15" height=".33"/><rect class="cls-84" x="52.07" y="27.31" width=".15" height=".33"/><rect class="cls-84" x="52.22" y="27.31" width=".15" height=".33"/><rect class="cls-13" x="52.36" y="27.31" width=".15" height=".33"/><rect class="cls-83" x="52.51" y="27.31" width=".15" height=".33"/><rect class="cls-83" x="52.65" y="27.31" width=".15" height=".33"/><rect class="cls-136" x="52.8" y="27.31" width=".15" height=".33"/><rect class="cls-67" x="52.95" y="27.31" width=".15" height=".33"/><rect class="cls-67" x="53.09" y="27.31" width=".15" height=".33"/><rect class="cls-133" x="53.24" y="27.31" width=".15" height=".33"/><rect class="cls-133" x="53.38" y="27.31" width=".15" height=".33"/><rect class="cls-73" x="53.53" y="27.31" width=".15" height=".33"/><rect class="cls-27" x="53.68" y="27.31" width=".15" height=".33"/><rect class="cls-27" x="53.82" y="27.31" width=".15" height=".33"/><rect class="cls-25" x="53.97" y="27.31" width=".15" height=".33"/><rect class="cls-100" x="54.11" y="27.31" width=".15" height=".33"/><rect class="cls-100" x="54.26" y="27.31" width=".15" height=".33"/><rect class="cls-32" x="54.41" y="27.31" width=".15" height=".33"/><rect class="cls-45" x="54.55" y="27.31" width=".15" height=".33"/><rect class="cls-45" x="54.7" y="27.31" width=".15" height=".33"/><rect class="cls-42" x="54.84" y="27.31" width=".15" height=".33"/><rect class="cls-70" x="54.99" y="27.31" width=".15" height=".33"/><rect class="cls-135" x="55.13" y="27.31" width=".15" height=".33"/><rect class="cls-135" x="55.28" y="27.31" width=".15" height=".33"/><rect class="cls-85" x="55.43" y="27.31" width=".15" height=".33"/><rect class="cls-134" x="55.57" y="27.31" width=".15" height=".33"/><rect class="cls-87" x="55.72" y="27.31" width=".15" height=".33"/><rect class="cls-5" x="55.86" y="27.31" width=".15" height=".33"/><rect class="cls-111" x="56.01" y="27.31" width=".15" height=".33"/><rect class="cls-111" x="56.16" y="27.31" width=".15" height=".33"/><rect class="cls-120" x="56.3" y="27.31" width=".15" height=".33"/><rect class="cls-75" x="56.45" y="27.31" width=".15" height=".33"/><rect class="cls-75" x="56.59" y="27.31" width=".15" height=".33"/><rect class="cls-14" x="56.74" y="27.31" width=".15" height=".33"/><rect class="cls-14" x="56.89" y="27.31" width=".15" height=".33"/><rect class="cls-14" x="57.03" y="27.31" width=".15" height=".33"/><rect class="cls-16" x="57.18" y="27.31" width=".15" height=".33"/><rect class="cls-16" x="57.32" y="27.31" width=".15" height=".33"/><rect class="cls-16" x="57.47" y="27.31" width=".15" height=".33"/><rect class="cls-122" x="57.62" y="27.31" width=".15" height=".33"/><rect class="cls-60" x="57.76" y="27.31" width=".15" height=".33"/><rect class="cls-110" x="57.91" y="27.31" width=".15" height=".33"/><rect class="cls-48" x="58.05" y="27.31" width=".15" height=".33"/><rect class="cls-48" x="58.2" y="27.31" width=".15" height=".33"/><rect class="cls-112" x="58.35" y="27.31" width=".15" height=".33"/><rect class="cls-33" x="58.49" y="27.31" width=".15" height=".33"/><rect class="cls-33" x="58.64" y="27.31" width=".15" height=".33"/><rect class="cls-6" x="58.78" y="27.31" width=".15" height=".33"/><rect class="cls-34" x="58.93" y="27.31" width=".15" height=".33"/><rect class="cls-37" x="59.08" y="27.31" width=".15" height=".33"/><rect class="cls-37" x="59.22" y="27.31" width=".15" height=".33"/><rect class="cls-26" x="59.37" y="27.31" width=".15" height=".33"/><rect class="cls-50" x="59.51" y="27.31" width=".15" height=".33"/><rect class="cls-50" x="59.66" y="27.31" width=".15" height=".33"/><rect class="cls-74" x="59.81" y="27.31" width=".15" height=".33"/><rect class="cls-74" x="59.95" y="27.31" width=".15" height=".33"/><rect class="cls-74" x="60.1" y="27.31" width=".15" height=".33"/><rect class="cls-114" x="60.24" y="27.31" width=".15" height=".33"/><rect class="cls-114" x="60.39" y="27.31" width=".15" height=".33"/><rect class="cls-49" x="60.53" y="27.31" width=".15" height=".33"/><rect class="cls-99" x="60.68" y="27.31" width=".15" height=".33"/><rect class="cls-99" x="60.83" y="27.31" width=".15" height=".33"/><rect class="cls-35" x="60.97" y="27.31" width=".15" height=".33"/><rect class="cls-4" x="61.12" y="27.31" width=".15" height=".33"/><rect class="cls-90" x="61.26" y="27.31" width=".15" height=".33"/><rect class="cls-90" x="61.41" y="27.31" width=".15" height=".33"/><rect class="cls-90" x="61.56" y="27.31" width=".15" height=".33"/><rect class="cls-10" x="61.7" y="27.31" width=".15" height=".33"/><rect class="cls-10" x="61.85" y="27.31" width=".15" height=".33"/><rect class="cls-80" x="61.99" y="27.31" width=".15" height=".33"/><rect class="cls-92" x="62.14" y="27.31" width=".15" height=".33"/><rect class="cls-92" x="62.29" y="27.31" width=".15" height=".33"/><rect class="cls-21" x="62.43" y="27.31" width=".15" height=".33"/><rect class="cls-109" x="62.58" y="27.31" width=".15" height=".33"/><rect class="cls-7" x="62.72" y="27.31" width=".15" height=".33"/><rect class="cls-7" x="62.87" y="27.31" width=".15" height=".33"/><rect class="cls-55" x="63.02" y="27.31" width=".15" height=".33"/><rect class="cls-108" x="63.16" y="27.31" width=".15" height=".33"/><rect class="cls-108" x="63.31" y="27.31" width=".15" height=".33"/><rect class="cls-101" x="63.45" y="27.31" width=".15" height=".33"/><rect class="cls-107" x="63.6" y="27.31" width=".15" height=".33"/><rect class="cls-40" x="63.75" y="27.31" width=".15" height=".33"/><rect class="cls-95" x="63.89" y="27.31" width=".15" height=".33"/><rect class="cls-95" x="64.04" y="27.31" width=".15" height=".33"/><rect class="cls-44" x="64.18" y="27.31" width=".15" height=".33"/><rect class="cls-44" x="64.33" y="27.31" width=".15" height=".33"/><rect class="cls-89" x="64.48" y="27.31" width=".15" height=".33"/><rect class="cls-89" x="64.62" y="27.31" width=".15" height=".33"/><rect class="cls-118" x="64.77" y="27.31" width=".15" height=".33"/><rect class="cls-86" x="64.91" y="27.31" width=".15" height=".33"/><rect class="cls-63" x="65.06" y="27.31" width=".15" height=".33"/><rect class="cls-119" x="65.21" y="27.31" width=".15" height=".33"/><rect class="cls-17" x="65.35" y="27.31" width=".15" height=".33"/><rect class="cls-82" x="65.5" y="27.31" width=".15" height=".33"/><rect class="cls-82" x="65.64" y="27.31" width=".15" height=".33"/><rect class="cls-117" x="65.79" y="27.31" width=".15" height=".33"/><rect class="cls-117" x="65.93" y="27.31" width=".15" height=".33"/><rect class="cls-125" x="66.08" y="27.31" width=".15" height=".33"/><rect class="cls-116" x="66.23" y="27.31" width=".15" height=".33"/><rect class="cls-22" x="66.37" y="27.31" width=".15" height=".33"/><rect class="cls-22" x="66.52" y="27.31" width=".15" height=".33"/><rect class="cls-96" x="66.66" y="27.31" width=".15" height=".33"/><rect class="cls-96" x="66.81" y="27.31" width=".15" height=".33"/><rect class="cls-98" x="66.96" y="27.31" width=".15" height=".33"/><rect class="cls-11" x="67.1" y="27.31" width=".15" height=".33"/><rect class="cls-62" x="67.25" y="27.31" width=".15" height=".33"/><rect class="cls-62" x="67.39" y="27.31" width=".15" height=".33"/><rect class="cls-57" x="67.54" y="27.31" width=".15" height=".33"/><rect class="cls-103" x="67.69" y="27.31" width=".15" height=".33"/><rect class="cls-105" x="67.83" y="27.31" width=".15" height=".33"/><rect class="cls-41" x="67.98" y="27.31" width=".15" height=".33"/><rect class="cls-124" x="68.12" y="27.31" width=".15" height=".33"/><rect class="cls-15" x="68.27" y="27.31" width=".15" height=".33"/><rect class="cls-15" x="68.42" y="27.31" width=".15" height=".33"/><rect class="cls-3" x="68.56" y="27.31" width=".15" height=".33"/><rect class="cls-102" x="68.71" y="27.31" width=".15" height=".33"/><rect class="cls-68" x="68.85" y="27.31" width=".15" height=".33"/><rect class="cls-39" x="69" y="27.31" width=".15" height=".33"/><rect class="cls-18" x="69.15" y="27.31" width=".15" height=".33"/><rect class="cls-23" x="69.29" y="27.31" width=".15" height=".33"/><rect class="cls-23" x="69.44" y="27.31" width=".15" height=".33"/><rect class="cls-76" x="69.58" y="27.31" width=".15" height=".33"/><rect class="cls-47" x="69.73" y="27.31" width=".15" height=".33"/><rect class="cls-72" x="69.88" y="27.31" width=".15" height=".33"/><rect class="cls-36" x="70.02" y="27.31" width=".15" height=".33"/><rect class="cls-130" x="70.17" y="27.31" width=".15" height=".33"/></g><rect class="cls-77" x="135.13" y="15.91" width="72.97" height=".25"/><g class="cls-65"><rect class="cls-77" x="135.13" y="15.91" width=".38" height=".25"/><rect class="cls-77" x="135.51" y="15.91" width=".38" height=".25"/><rect class="cls-77" x="135.89" y="15.91" width=".38" height=".25"/><rect class="cls-77" x="136.28" y="15.91" width=".38" height=".25"/><rect class="cls-77" x="136.66" y="15.91" width=".38" height=".25"/><rect class="cls-77" x="137.04" y="15.91" width=".38" height=".25"/><rect class="cls-77" x="137.42" y="15.91" width=".38" height=".25"/><rect class="cls-77" x="137.8" y="15.91" width=".38" height=".25"/><rect class="cls-77" x="138.19" y="15.91" width=".38" height=".25"/><rect class="cls-77" x="138.57" y="15.91" width=".38" height=".25"/><rect class="cls-77" x="138.95" y="15.91" width=".38" height=".25"/><rect class="cls-77" x="139.33" y="15.91" width=".38" height=".25"/><rect class="cls-77" x="139.71" y="15.91" width=".38" height=".25"/><rect class="cls-77" x="140.1" y="15.91" width=".38" height=".25"/><rect class="cls-77" x="140.48" y="15.91" width=".38" height=".25"/><rect class="cls-77" x="140.86" y="15.91" width=".38" height=".25"/><rect class="cls-77" x="141.24" y="15.91" width=".38" height=".25"/><rect class="cls-77" x="141.63" y="15.91" width=".38" height=".25"/><rect class="cls-77" x="142.01" y="15.91" width=".38" height=".25"/><rect class="cls-77" x="142.39" y="15.91" width=".38" height=".25"/><rect class="cls-77" x="142.77" y="15.91" width=".38" height=".25"/><rect class="cls-77" x="143.15" y="15.91" width=".38" height=".25"/><rect class="cls-77" x="143.54" y="15.91" width=".38" height=".25"/><rect class="cls-77" x="143.92" y="15.91" width=".38" height=".25"/><rect class="cls-77" x="144.3" y="15.91" width=".38" height=".25"/><rect class="cls-77" x="144.68" y="15.91" width=".38" height=".25"/><rect class="cls-77" x="145.06" y="15.91" width=".38" height=".25"/><rect class="cls-77" x="145.45" y="15.91" width=".38" height=".25"/><rect class="cls-77" x="145.83" y="15.91" width=".38" height=".25"/><rect class="cls-77" x="146.21" y="15.91" width=".38" height=".25"/><rect class="cls-77" x="146.59" y="15.91" width=".38" height=".25"/><rect class="cls-77" x="146.97" y="15.91" width=".38" height=".25"/><rect class="cls-77" x="147.36" y="15.91" width=".38" height=".25"/><rect class="cls-77" x="147.74" y="15.91" width=".38" height=".25"/><rect class="cls-77" x="148.12" y="15.91" width=".38" height=".25"/><rect class="cls-77" x="148.5" y="15.91" width=".38" height=".25"/><rect class="cls-77" x="148.88" y="15.91" width=".38" height=".25"/><rect class="cls-77" x="149.27" y="15.91" width=".38" height=".25"/><rect class="cls-77" x="149.65" y="15.91" width=".38" height=".25"/><rect class="cls-77" x="150.03" y="15.91" width=".38" height=".25"/><rect class="cls-77" x="150.41" y="15.91" width=".38" height=".25"/><rect class="cls-77" x="150.79" y="15.91" width=".38" height=".25"/><rect class="cls-77" x="151.18" y="15.91" width=".38" height=".25"/><rect class="cls-77" x="151.56" y="15.91" width=".38" height=".25"/><rect class="cls-77" x="151.94" y="15.91" width=".38" height=".25"/><rect class="cls-77" x="152.32" y="15.91" width=".38" height=".25"/><rect class="cls-77" x="152.7" y="15.91" width=".38" height=".25"/><rect class="cls-77" x="153.09" y="15.91" width=".38" height=".25"/><rect class="cls-77" x="153.47" y="15.91" width=".38" height=".25"/><rect class="cls-77" x="153.85" y="15.91" width=".38" height=".25"/><rect class="cls-77" x="154.23" y="15.91" width=".38" height=".25"/><rect class="cls-77" x="154.62" y="15.91" width=".38" height=".25"/><rect class="cls-77" x="155" y="15.91" width=".38" height=".25"/><rect class="cls-77" x="155.38" y="15.91" width=".38" height=".25"/><rect class="cls-77" x="155.76" y="15.91" width=".38" height=".25"/><rect class="cls-77" x="156.14" y="15.91" width=".38" height=".25"/><rect class="cls-77" x="156.53" y="15.91" width=".38" height=".25"/><rect class="cls-77" x="156.91" y="15.91" width=".38" height=".25"/><rect class="cls-77" x="157.29" y="15.91" width=".38" height=".25"/><rect class="cls-77" x="157.67" y="15.91" width=".38" height=".25"/><rect class="cls-77" x="158.05" y="15.91" width=".38" height=".25"/><rect class="cls-77" x="158.44" y="15.91" width=".38" height=".25"/><rect class="cls-77" x="158.82" y="15.91" width=".38" height=".25"/><rect class="cls-77" x="159.2" y="15.91" width=".38" height=".25"/><rect class="cls-77" x="159.58" y="15.91" width=".38" height=".25"/><rect class="cls-77" x="159.96" y="15.91" width=".38" height=".25"/><rect class="cls-77" x="160.35" y="15.91" width=".38" height=".25"/><rect class="cls-77" x="160.73" y="15.91" width=".38" height=".25"/><rect class="cls-77" x="161.11" y="15.91" width=".38" height=".25"/><rect class="cls-77" x="161.49" y="15.91" width=".38" height=".25"/><rect class="cls-77" x="161.87" y="15.91" width=".38" height=".25"/><rect class="cls-77" x="162.26" y="15.91" width=".38" height=".25"/><rect class="cls-77" x="162.64" y="15.91" width=".38" height=".25"/><rect class="cls-77" x="163.02" y="15.91" width=".38" height=".25"/><rect class="cls-77" x="163.4" y="15.91" width=".38" height=".25"/><rect class="cls-77" x="163.78" y="15.91" width=".38" height=".25"/><rect class="cls-77" x="164.17" y="15.91" width=".38" height=".25"/><rect class="cls-77" x="164.55" y="15.91" width=".38" height=".25"/><rect class="cls-77" x="164.93" y="15.91" width=".38" height=".25"/><rect class="cls-77" x="165.31" y="15.91" width=".38" height=".25"/><rect class="cls-77" x="165.69" y="15.91" width=".38" height=".25"/><rect class="cls-77" x="166.08" y="15.91" width=".38" height=".25"/><rect class="cls-77" x="166.46" y="15.91" width=".38" height=".25"/><rect class="cls-77" x="166.84" y="15.91" width=".38" height=".25"/><rect class="cls-77" x="167.22" y="15.91" width=".38" height=".25"/><rect class="cls-77" x="167.61" y="15.91" width=".38" height=".25"/><rect class="cls-77" x="167.99" y="15.91" width=".38" height=".25"/><rect class="cls-77" x="168.37" y="15.91" width=".38" height=".25"/><rect class="cls-77" x="168.75" y="15.91" width=".38" height=".25"/><rect class="cls-77" x="169.13" y="15.91" width=".38" height=".25"/><rect class="cls-77" x="169.52" y="15.91" width=".38" height=".25"/><rect class="cls-77" x="169.9" y="15.91" width=".38" height=".25"/><rect class="cls-77" x="170.28" y="15.91" width=".38" height=".25"/><rect class="cls-77" x="170.66" y="15.91" width=".38" height=".25"/><rect class="cls-77" x="171.04" y="15.91" width=".38" height=".25"/><rect class="cls-77" x="171.43" y="15.91" width=".38" height=".25"/><rect class="cls-77" x="171.81" y="15.91" width=".38" height=".25"/><rect class="cls-77" x="172.19" y="15.91" width=".38" height=".25"/><rect class="cls-77" x="172.57" y="15.91" width=".38" height=".25"/><rect class="cls-77" x="172.95" y="15.91" width=".38" height=".25"/><rect class="cls-77" x="173.34" y="15.91" width=".38" height=".25"/><rect class="cls-77" x="173.72" y="15.91" width=".38" height=".25"/><rect class="cls-77" x="174.1" y="15.91" width=".38" height=".25"/><rect class="cls-77" x="174.48" y="15.91" width=".38" height=".25"/><rect class="cls-77" x="174.86" y="15.91" width=".38" height=".25"/><rect class="cls-77" x="175.25" y="15.91" width=".38" height=".25"/><rect class="cls-77" x="175.63" y="15.91" width=".38" height=".25"/><rect class="cls-77" x="176.01" y="15.91" width=".38" height=".25"/><rect class="cls-77" x="176.39" y="15.91" width=".38" height=".25"/><rect class="cls-77" x="176.77" y="15.91" width=".38" height=".25"/><rect class="cls-77" x="177.16" y="15.91" width=".38" height=".25"/><rect class="cls-77" x="177.54" y="15.91" width=".38" height=".25"/><rect class="cls-77" x="177.92" y="15.91" width=".38" height=".25"/><rect class="cls-77" x="178.3" y="15.91" width=".38" height=".25"/><rect class="cls-77" x="178.68" y="15.91" width=".38" height=".25"/><rect class="cls-77" x="179.07" y="15.91" width=".38" height=".25"/><rect class="cls-77" x="179.45" y="15.91" width=".38" height=".25"/><rect class="cls-77" x="179.83" y="15.91" width=".38" height=".25"/><rect class="cls-77" x="180.21" y="15.91" width=".38" height=".25"/><rect class="cls-77" x="180.6" y="15.91" width=".38" height=".25"/><rect class="cls-77" x="180.98" y="15.91" width=".38" height=".25"/><rect class="cls-77" x="181.36" y="15.91" width=".38" height=".25"/><rect class="cls-77" x="181.74" y="15.91" width=".38" height=".25"/><rect class="cls-77" x="182.12" y="15.91" width=".38" height=".25"/><rect class="cls-77" x="182.51" y="15.91" width=".38" height=".25"/><rect class="cls-77" x="182.89" y="15.91" width=".38" height=".25"/><rect class="cls-77" x="183.27" y="15.91" width=".38" height=".25"/><rect class="cls-77" x="183.65" y="15.91" width=".38" height=".25"/><rect class="cls-77" x="184.03" y="15.91" width=".38" height=".25"/><rect class="cls-77" x="184.42" y="15.91" width=".38" height=".25"/><rect class="cls-77" x="184.8" y="15.91" width=".38" height=".25"/><rect class="cls-77" x="185.18" y="15.91" width=".38" height=".25"/><rect class="cls-77" x="185.56" y="15.91" width=".38" height=".25"/><rect class="cls-77" x="185.94" y="15.91" width=".38" height=".25"/><rect class="cls-77" x="186.33" y="15.91" width=".38" height=".25"/><rect class="cls-77" x="186.71" y="15.91" width=".38" height=".25"/><rect class="cls-77" x="187.09" y="15.91" width=".38" height=".25"/><rect class="cls-77" x="187.47" y="15.91" width=".38" height=".25"/><rect class="cls-77" x="187.85" y="15.91" width=".38" height=".25"/><rect class="cls-77" x="188.24" y="15.91" width=".38" height=".25"/><rect class="cls-77" x="188.62" y="15.91" width=".38" height=".25"/><rect class="cls-77" x="189" y="15.91" width=".38" height=".25"/><rect class="cls-77" x="189.38" y="15.91" width=".38" height=".25"/><rect class="cls-77" x="189.76" y="15.91" width=".38" height=".25"/><rect class="cls-77" x="190.15" y="15.91" width=".38" height=".25"/><rect class="cls-77" x="190.53" y="15.91" width=".38" height=".25"/><rect class="cls-77" x="190.91" y="15.91" width=".38" height=".25"/><rect class="cls-77" x="191.29" y="15.91" width=".38" height=".25"/><rect class="cls-77" x="191.67" y="15.91" width=".38" height=".25"/><rect class="cls-77" x="192.06" y="15.91" width=".38" height=".25"/><rect class="cls-77" x="192.44" y="15.91" width=".38" height=".25"/><rect class="cls-77" x="192.82" y="15.91" width=".38" height=".25"/><rect class="cls-77" x="193.2" y="15.91" width=".38" height=".25"/><rect class="cls-77" x="193.59" y="15.91" width=".38" height=".25"/><rect class="cls-77" x="193.97" y="15.91" width=".38" height=".25"/><rect class="cls-77" x="194.35" y="15.91" width=".38" height=".25"/><rect class="cls-77" x="194.73" y="15.91" width=".38" height=".25"/><rect class="cls-77" x="195.11" y="15.91" width=".38" height=".25"/><rect class="cls-77" x="195.5" y="15.91" width=".38" height=".25"/><rect class="cls-77" x="195.88" y="15.91" width=".38" height=".25"/><rect class="cls-77" x="196.26" y="15.91" width=".38" height=".25"/><rect class="cls-77" x="196.64" y="15.91" width=".38" height=".25"/><rect class="cls-77" x="197.02" y="15.91" width=".38" height=".25"/><rect class="cls-77" x="197.41" y="15.91" width=".38" height=".25"/><rect class="cls-77" x="197.79" y="15.91" width=".38" height=".25"/><rect class="cls-77" x="198.17" y="15.91" width=".38" height=".25"/><rect class="cls-77" x="198.55" y="15.91" width=".38" height=".25"/><rect class="cls-77" x="198.93" y="15.91" width=".38" height=".25"/><rect class="cls-77" x="199.32" y="15.91" width=".38" height=".25"/><rect class="cls-77" x="199.7" y="15.91" width=".38" height=".25"/><rect class="cls-77" x="200.08" y="15.91" width=".38" height=".25"/><rect class="cls-77" x="200.46" y="15.91" width=".38" height=".25"/><rect class="cls-77" x="200.84" y="15.91" width=".38" height=".25"/><rect class="cls-77" x="201.23" y="15.91" width=".38" height=".25"/><rect class="cls-77" x="201.61" y="15.91" width=".38" height=".25"/><rect class="cls-77" x="201.99" y="15.91" width=".38" height=".25"/><rect class="cls-77" x="202.37" y="15.91" width=".38" height=".25"/><rect class="cls-77" x="202.75" y="15.91" width=".38" height=".25"/><rect class="cls-77" x="203.14" y="15.91" width=".38" height=".25"/><rect class="cls-77" x="203.52" y="15.91" width=".38" height=".25"/><rect class="cls-77" x="203.9" y="15.91" width=".38" height=".25"/><rect class="cls-77" x="204.28" y="15.91" width=".38" height=".25"/><rect class="cls-77" x="204.66" y="15.91" width=".38" height=".25"/><rect class="cls-77" x="205.05" y="15.91" width=".38" height=".25"/><rect class="cls-77" x="205.43" y="15.91" width=".38" height=".25"/><rect class="cls-77" x="205.81" y="15.91" width=".38" height=".25"/><rect class="cls-77" x="206.19" y="15.91" width=".38" height=".25"/><rect class="cls-77" x="206.58" y="15.91" width=".38" height=".25"/><rect class="cls-77" x="206.96" y="15.91" width=".38" height=".25"/><rect class="cls-77" x="207.34" y="15.91" width=".38" height=".25"/><rect class="cls-77" x="207.72" y="15.91" width=".38" height=".25"/></g><circle class="cls-123" cx="13.76" cy="6.02" r="1.41"/></svg>