<?xml version="1.0" encoding="UTF-8"?>
<svg id="Layer_1" xmlns="http://www.w3.org/2000/svg" xmlns:xlink="http://www.w3.org/1999/xlink" version="1.1" viewBox="0 0 27 30">
  <!-- Generator: Adobe Illustrator 29.1.0, SVG Export Plug-In . SVG Version: 2.1.0 Build 142)  -->
  <defs>
    <style>
      .st0 {
        fill: url(#linear-gradient2);
      }

      .st1 {
        fill: url(#linear-gradient1);
      }

      .st2 {
        fill: url(#linear-gradient3);
      }

      .st3 {
        fill: url(#linear-gradient4);
      }

      .st4, .st5 {
        fill: none;
        stroke: #fff;
        stroke-miterlimit: 10;
      }

      .st6 {
        fill: url(#linear-gradient);
      }

      .st5 {
        stroke-width: .2px;
      }
    </style>
    <linearGradient id="linear-gradient" x1="2.1" y1="15.7" x2="25.1" y2="15.7" gradientUnits="userSpaceOnUse">
      <stop offset="0" stop-color="#4774b9"/>
      <stop offset="1" stop-color="#29b473"/>
    </linearGradient>
    <linearGradient id="linear-gradient1" x1="7.1" y1="4.2" x2="7.1" y2="4.2" xlink:href="#linear-gradient"/>
    <linearGradient id="linear-gradient2" x1="-217.8" y1="9726.8" x2="-216.7" y2="9726.8" gradientTransform="translate(9455.4 -2318.1) rotate(74.9)" xlink:href="#linear-gradient"/>
    <linearGradient id="linear-gradient3" x1="-220.3" y1="9727.7" x2="-219.6" y2="9727.7" gradientTransform="translate(9455.4 -2318.1) rotate(74.9)" xlink:href="#linear-gradient"/>
    <linearGradient id="linear-gradient4" x1="-215.3" y1="9730.8" x2="-214.6" y2="9730.8" gradientTransform="translate(9455.4 -2318.1) rotate(74.9)" xlink:href="#linear-gradient"/>
  </defs>
  <path class="st6" d="M13.6,4.3c-2.2,0-4.2.6-5.9,1.7-.1,0-.5.2-.9.1-.2,0-.3-.1-.4-.2,0-.2,0-.3,0-.5,0-.9-.7-1.7-1.7-1.7s-1.7.8-1.7,1.7.7,1.7,1.7,1.7.3,0,.4,0c0,0,.2.1.3.4,0,.3-.1.5-.1.5-2,2.1-3.3,5-3.3,8.2,0,6.5,5.1,11.8,11.5,11.8s11.5-5.3,11.5-11.8-5.1-11.8-11.5-11.8ZM5.1,10.6s0,0,0,0c0,0,0,0,0,0,0,0,0,0,0,0,0,0,0,0,0,0,0,0,0,0,0,0ZM5.4,10.1s0,0,0,0c0,0,0,0,0,0,0,0,0,0,0,0,0,0,0,0,0,0ZM5.9,9.5s0,0,0,0c0,0,0,0,0,0,0,0,0,0,0,0,0,0,0,0,0,0ZM6.4,8.9s0,0-.1,0c0,0,0,0,0-.1,0,0,0,0,.1,0,0,0,0,0,0,.1ZM7,8.4c0,0-.1,0-.2,0,0,0,0-.1,0-.2,0,0,.1,0,.2,0,0,0,0,.1,0,.2ZM15.1,10.7h4.2c0,0,0,.1,0,.2-.6,0-.9.5-1.3.9-.6.8-1.1,1.7-1.5,2.7,0,0,0,.2-.2.2,0-.4.2-.7.2-1.1,0-.5.1-1,0-1.6-.1-.7-.6-1.1-1.3-1.1q-.2,0-.2-.2ZM11.9,5.7c.1,0,.3,0,.4,0,0,.1,0,.3,0,.4-.1,0-.3,0-.4,0,0-.1,0-.3,0-.4ZM11.8,11.9c0,.3-.2.5-.5.5s-.5-.2-.5-.5.2-.5.5-.5.5.2.5.5ZM10.8,5.9c.1,0,.3,0,.3,0s0,.3,0,.3c-.1,0-.3,0-.3,0s0-.3,0-.3ZM9.8,6.3c0,0,.2,0,.3,0,0,0,0,.2,0,.3,0,0-.2,0-.3,0,0,0,0-.2,0-.3ZM9,6.7c0,0,.2,0,.3,0s0,.2,0,.3c0,0-.2,0-.3,0,0,0,0-.2,0-.3ZM8.2,7.1c0,0,.2,0,.2,0,0,0,0,.2,0,.2,0,0-.2,0-.2,0,0,0,0-.2,0-.2ZM7.5,7.7c0,0,.2,0,.2,0s0,.2,0,.2c0,0-.2,0-.2,0,0,0,0-.2,0-.2ZM13.9,26.8c-.1,0-.3,0-.4,0s0-.3,0-.4c.1,0,.3,0,.4,0,0,.1,0,.3,0,.4ZM15.1,26.7c-.1,0-.3,0-.3,0s0-.3,0-.3.3,0,.3,0c0,.1,0,.3,0,.3ZM16.1,26.5c-.1,0-.2,0-.3,0,0-.1,0-.2,0-.3.1,0,.2,0,.3,0,0,.1,0,.2,0,.3ZM17,26.2c0,0-.2,0-.3,0,0,0,0-.2,0-.3,0,0,.2,0,.3,0,0,0,0,.2,0,.3ZM17.8,25.9c0,0-.2,0-.2,0,0,0,0-.2,0-.2,0,0,.2,0,.2,0s0,.2,0,.2ZM14.2,20.7c-.4,1-.8,2.1-1.1,3.1,0,0,0,0,0,0-.2-.5-.4-.9-.5-1.4-.8-2.1-1.6-4.1-2.4-6.2-.3-.8-.6-1.7-1-2.5-.2-.6-.5-1.3-.8-1.9-.2-.5-.5-.8-1.1-.9,0,0,0,0,0-.1,0,0,0,0,0-.1h4.2v.2c-.2,0-.3,0-.5,0-.1,0-.3,0-.4,0-.3.1-.4.3-.4.6.1.5.3.9.5,1.3.5,1.4,1.1,2.8,1.6,4.2.3.8.6,1.6.9,2.4.2.5.5.6.9.2.2-.2.3-.5.5-.7,0,0,0,0,.1-.1,0,0,0,0,0,0-.2.6-.4,1.2-.7,1.8.9.2,2,0,2.2-1.1.5-2.4-4.6-2.7-3.9-6.1.3-1.5,2.1-1.9,3.4-1.6.2,0,.3,0,.5.1-.8-.2-1.5.2-1.7,1-.4,1.8,4.5,2.6,3.9,5.7-.4,2.1-2.6,2.3-4.3,1.9ZM18.6,25.5c0,0-.2,0-.2,0,0,0,0-.2,0-.2,0,0,.2,0,.2,0,0,0,0,.2,0,.2ZM19.3,25c0,0-.1,0-.2,0,0,0,0-.1,0-.2,0,0,.1,0,.2,0,0,0,0,.1,0,.2ZM19.9,24.5s0,0-.1,0c0,0,0-.1,0-.1s0,0,.1,0c0,0,0,.1,0,.1ZM20.5,24s0,0,0,0c0,0,0,0,0,0,0,0,0,0,0,0,0,0,0,0,0,0ZM21,23.5s0,0,0,0,0,0,0,0,0,0,0,0c0,0,0,0,0,0ZM21.5,23s0,0,0,0c0,0,0,0,0,0,0,0,0,0,0,0,0,0,0,0,0,0,0,0,0,0,0,0Z"/>
  <path class="st1" d="M7.1,4.2"/>
  <ellipse class="st0" cx="7.4" cy="4.6" rx=".5" ry=".5"/>
  <ellipse class="st2" cx="5.9" cy="2.2" rx=".4" ry=".4"/>
  <ellipse class="st3" cx="4.2" cy="7.8" rx=".4" ry=".4"/>
  <path class="st4" d="M12.5,5.8"/>
  <path class="st4" d="M4.9,10.8"/>
  <path class="st5" d="M13.3,26.6c-5.5-.2-9.9-4.8-9.9-10.4s.5-3.7,1.4-5.3"/>
  <path class="st4" d="M13.4,26s0,0,0,0"/>
  <path class="st4" d="M21.5,22.8"/>
  <path class="st5" d="M12.9,5.8c.2,0,.5,0,.7,0,5.6,0,10.2,4.7,10.2,10.4s-.7,4.4-1.9,6.1"/>
</svg>